<svg width="139" height="48" viewBox="0 0 139 48" fill="none" xmlns="http://www.w3.org/2000/svg">
<path d="M9.69144 47.1104C9.33683 47.1104 8.99079 47.1057 8.63897 47.0975C7.91014 47.0876 7.18301 47.0218 6.46355 46.9004C5.79268 46.7805 5.1428 46.5573 4.53533 46.2384C3.93343 45.922 3.38444 45.5073 2.90941 45.0099C2.4275 44.5185 2.02629 43.9484 1.72168 43.3225C1.4137 42.6924 1.20057 42.0171 1.0897 41.32C0.969965 40.5709 0.905184 39.8135 0.895915 39.0543C0.888536 38.7994 0.878876 37.9509 0.878876 37.9509V10.0371C0.878876 10.0371 0.889164 9.20165 0.895973 8.95619C0.904848 8.19817 0.969252 7.44194 1.08863 6.69406C1.1997 5.99504 1.413 5.31776 1.72114 4.68564C2.02464 4.06009 2.42362 3.48964 2.90262 2.99641C3.38109 2.4985 3.93183 2.08159 4.53476 1.7609C5.14083 1.44296 5.78949 1.22139 6.45899 1.10362C7.18082 0.981054 7.91047 0.914788 8.64183 0.905379L9.69201 0.890625H129.301L130.363 0.905971C131.088 0.914912 131.811 0.980587 132.526 1.10244C133.202 1.22169 133.858 1.4448 134.471 1.76444C135.679 2.41073 136.662 3.43321 137.282 4.68859C137.585 5.31634 137.795 5.9881 137.905 6.68108C138.025 7.4351 138.093 8.19727 138.107 8.96151C138.11 9.30372 138.11 9.6713 138.11 10.0371C138.119 10.4903 138.119 10.9216 138.119 11.3564V36.6458C138.119 37.0848 138.119 37.5131 138.11 37.945C138.11 38.338 138.11 38.6979 138.106 39.0684C138.092 39.819 138.026 40.5676 137.907 41.3081C137.798 42.0103 137.586 42.6909 137.278 43.3261C136.971 43.9453 136.573 44.5104 136.096 45.0005C135.621 45.5005 135.071 45.9177 134.468 46.2361C133.856 46.5575 133.202 46.7814 132.526 46.9004C131.807 47.0224 131.08 47.0883 130.351 47.0975C130.01 47.1057 129.653 47.1104 129.306 47.1104L128.045 47.1129L9.69144 47.1104Z" fill="#212225"/>
</svg>
