<svg width="48" height="48" viewBox="0 0 48 48" fill="none" xmlns="http://www.w3.org/2000/svg">
<rect width="48" height="48" rx="12" fill="white"/>
<path fill-rule="evenodd" clip-rule="evenodd" d="M30.0727 20.378H17.9258C16.6555 20.378 15.6258 21.4078 15.6258 22.678V33.2752C15.6258 34.5454 16.6555 35.5752 17.9258 35.5752H30.0727C31.343 35.5752 32.3727 34.5454 32.3727 33.2752V22.678C32.3727 21.4078 31.343 20.378 30.0727 20.378ZM17.9258 18.678C15.7166 18.678 13.9258 20.4689 13.9258 22.678V33.2752C13.9258 35.4843 15.7166 37.2752 17.9258 37.2752H30.0727C32.2818 37.2752 34.0727 35.4843 34.0727 33.2752V22.678C34.0727 20.4689 32.2818 18.678 30.0727 18.678H17.9258Z" fill="#4F5864"/>
<path fill-rule="evenodd" clip-rule="evenodd" d="M23.9234 19.4507C23.454 19.4507 23.0734 19.0701 23.0734 18.6007L23.0734 13.3267C23.0734 12.8573 23.454 12.4767 23.9234 12.4767C24.3929 12.4767 24.7734 12.8573 24.7734 13.3267L24.7734 18.6007C24.7734 19.0701 24.3929 19.4507 23.9234 19.4507Z" fill="#4F5864"/>
<path fill-rule="evenodd" clip-rule="evenodd" d="M14.4773 14.9177C14.3558 14.4643 14.6249 13.9982 15.0783 13.8767L32.1482 9.30283C32.6016 9.18132 33.0677 9.45042 33.1892 9.90387C33.3107 10.3573 33.0416 10.8234 32.5882 10.9449L15.5183 15.5188C15.0648 15.6403 14.5988 15.3712 14.4773 14.9177Z" fill="#4F5864"/>
</svg>
