<svg width="48" height="48" viewBox="0 0 48 48" fill="none" xmlns="http://www.w3.org/2000/svg">
<rect width="48" height="48" rx="12" fill="white"/>
<path d="M35.9504 23.9668C36.3521 23.5843 36.6359 23.1002 36.7699 22.569C36.9039 22.0379 36.8827 21.4809 36.7087 20.9608C36.5348 20.4408 36.2149 19.9784 35.7853 19.6259C35.3557 19.2733 34.8334 19.0446 34.2773 18.9656L29.6809 18.3215C29.4867 18.2983 29.3013 18.2291 29.141 18.1199C28.9807 18.0107 28.8504 17.8648 28.7616 17.6952L26.7024 13.6334C26.4532 13.143 26.068 12.7302 25.5904 12.4416C25.1129 12.153 24.5619 12 23.9997 12C23.4376 12 22.8866 12.153 22.409 12.4416C21.9314 12.7302 21.5463 13.143 21.297 13.6334L19.2378 17.6952C19.149 17.8648 19.0187 18.0107 18.8584 18.1199C18.6981 18.2291 18.5128 18.2983 18.3186 18.3215L13.7222 18.9656C13.1661 19.0446 12.6438 19.2733 12.2142 19.6259C11.7845 19.9784 11.4647 20.4408 11.2907 20.9608C11.1167 21.4809 11.0956 22.0379 11.2295 22.569C11.3635 23.1002 11.6474 23.5843 12.0491 23.9668L15.3769 27.1249C15.5089 27.2499 15.6092 27.4031 15.6699 27.5724C15.7305 27.7416 15.7498 27.9223 15.7262 28.1001L14.9448 32.5734C14.8487 33.1123 14.9098 33.6666 15.1211 34.1734C15.3323 34.6802 15.6853 35.1192 16.14 35.4406C16.5947 35.762 17.1329 35.953 17.6935 35.9917C18.254 36.0305 18.8145 35.9156 19.3114 35.66L23.4298 33.5575C23.5963 33.4698 23.7828 33.4239 23.9721 33.4239C24.1615 33.4239 24.3479 33.4698 24.5145 33.5575L28.6329 35.66C29.067 35.8812 29.5494 35.9978 30.0394 36C30.4794 36.0021 30.9146 35.9105 31.3144 35.7316C31.7142 35.5526 32.0689 35.2907 32.3536 34.9642C32.6383 34.6376 32.8461 34.2544 32.9625 33.8414C33.0788 33.4284 33.1009 32.9956 33.0271 32.5734L32.2733 28.1001C32.2425 27.9174 32.2573 27.7302 32.3165 27.5542C32.3757 27.3783 32.4775 27.2187 32.6134 27.0891L35.9504 23.9668ZM31.354 25.8456C31.0055 26.1781 30.745 26.5877 30.5945 27.0395C30.444 27.4913 30.4081 27.9719 30.4899 28.4401L31.2712 32.9134C31.3155 33.1301 31.2939 33.3547 31.209 33.5597C31.1241 33.7647 30.9797 33.9411 30.7933 34.0674C30.607 34.1937 30.3868 34.2643 30.1599 34.2707C29.9329 34.2771 29.7089 34.2189 29.5154 34.1033L25.397 32.0008C24.9716 31.7837 24.4985 31.6703 24.0181 31.6703C23.5378 31.6703 23.0646 31.7837 22.6392 32.0008L18.484 34.1033C18.2902 34.2047 18.0708 34.2507 17.8513 34.236C17.6317 34.2213 17.4209 34.1465 17.2431 34.0203C17.0653 33.894 16.9279 33.7215 16.8465 33.5224C16.7652 33.3234 16.7433 33.1061 16.7834 32.8955L17.5647 28.4222C17.6465 27.954 17.6106 27.4734 17.4601 27.0216C17.3096 26.5698 17.0491 26.1602 16.7006 25.8277L13.3728 22.7321C13.2165 22.5828 13.106 22.394 13.054 22.187C13.0019 21.9799 13.0103 21.7628 13.0781 21.5601C13.1459 21.3574 13.2705 21.1772 13.4379 21.0396C13.6053 20.9021 13.8088 20.8128 14.0255 20.7818L18.6219 20.1287C19.1059 20.0622 19.5658 19.8815 19.9616 19.6024C20.3573 19.3232 20.677 18.9541 20.8925 18.5272L22.9425 14.4744C23.0417 14.2845 23.193 14.125 23.3796 14.0136C23.5662 13.9022 23.7808 13.8432 23.9997 13.8432C24.2186 13.8432 24.4333 13.9022 24.6199 14.0136C24.8065 14.125 24.9577 14.2845 25.0569 14.4744L27.1069 18.5272C27.3327 18.9391 27.6568 19.2922 28.0519 19.5568C28.447 19.8215 28.9016 19.99 29.3775 20.0482L33.9739 20.7013C34.2088 20.7186 34.4328 20.8041 34.6172 20.9468C34.8015 21.0894 34.9376 21.2826 35.0079 21.5013C35.0782 21.72 35.0795 21.9543 35.0115 22.1737C34.9435 22.3931 34.8094 22.5877 34.6266 22.7321L31.354 25.8456Z" fill="#4F5864"/>
</svg>
