<svg width="147" height="147" viewBox="0 0 147 147" fill="none" xmlns="http://www.w3.org/2000/svg">
<path d="M110.045 28.3471C112.197 29.2509 114.657 28.1979 115.541 25.9949L117.181 21.9026C118.064 19.6995 117.035 17.1809 114.883 16.2771C112.731 15.3733 110.27 16.4263 109.387 18.6294L107.747 22.7217C106.863 24.9245 107.892 27.4433 110.045 28.3471Z" fill="url(#paint0_linear_1_14825)"/>
<path d="M75.4704 114.613C73.3182 113.71 70.8577 114.763 69.9747 116.965L68.3345 121.058C67.4516 123.261 68.4805 125.779 70.6325 126.683C72.7848 127.587 75.2452 126.534 76.1282 124.331L77.7684 120.239C78.6516 118.036 77.6227 115.517 75.4704 114.613Z" fill="url(#paint1_linear_1_14825)"/>
<path d="M144.385 88.4995L140.388 86.8205C138.235 85.9167 135.775 86.9697 134.892 89.1728C134.009 91.3759 135.037 93.8945 137.19 94.7985L141.187 96.4775C143.34 97.3813 145.8 96.3283 146.683 94.1252C147.566 91.9219 146.538 89.4033 144.385 88.4995Z" fill="url(#paint2_linear_1_14825)"/>
<path d="M41.1294 54.4555L45.1272 56.1345C47.2794 57.0383 49.7399 55.985 50.6229 53.7822C51.5058 51.5791 50.4771 49.0605 48.3249 48.1564L44.3271 46.4775C42.1748 45.5737 39.7143 46.6267 38.8314 48.8297H38.8311C37.9485 51.0328 38.9772 53.5514 41.1294 54.4555Z" fill="url(#paint3_linear_1_14825)"/>
<path d="M134.776 53.4932C135.673 55.6902 138.141 56.7263 140.287 55.8078L144.273 54.1013C146.42 53.1828 147.432 50.657 146.534 48.46C145.637 46.2631 143.17 45.227 141.023 46.1455L137.037 47.852C134.89 48.7708 133.878 51.2963 134.776 53.4932Z" fill="url(#paint4_linear_1_14825)"/>
<path d="M45.2278 87.152L41.2412 88.8585C39.095 89.7773 38.0827 92.3029 38.98 94.4998C39.8774 96.6967 42.3449 97.7329 44.4911 96.8144L48.4779 95.1081C50.6242 94.1896 51.6364 91.6638 50.7391 89.4669C49.8413 87.2697 47.3737 86.2335 45.2278 87.152Z" fill="url(#paint5_linear_1_14825)"/>
<path d="M75.1875 28.4641C77.3337 27.5453 78.3462 25.0198 77.4486 22.8228L75.7815 18.7421C74.8842 16.5452 72.4167 15.5087 70.2704 16.4275C68.1242 17.346 67.1119 19.8719 68.0093 22.0688L69.6764 26.1498C70.5737 28.3464 73.0412 29.3826 75.1875 28.4641Z" fill="url(#paint6_linear_1_14825)"/>
<path d="M92.7588 115.195C116.346 115.195 135.467 95.6221 135.467 71.4777C135.467 47.3334 116.346 27.7606 92.7588 27.7606C69.1717 27.7606 50.0505 47.3334 50.0505 71.4777C50.0505 95.6221 69.1717 115.195 92.7588 115.195Z" fill="url(#paint7_linear_1_14825)"/>
<path d="M92.7577 115.194C116.345 115.194 135.466 95.6209 135.466 71.4766C135.466 47.3323 116.345 27.7595 92.7577 27.7595C69.1706 27.7595 50.0494 47.3323 50.0494 71.4766C50.0494 95.6209 69.1706 115.194 92.7577 115.194Z" fill="url(#paint8_linear_1_14825)"/>
<path d="M101.727 85.5103C101.573 85.5103 101.418 85.5143 101.263 85.5169C101.565 84.2809 101.727 82.9906 101.727 81.6607C101.727 72.695 94.4582 65.4258 85.4925 65.4258C81.9644 65.4258 78.7037 66.5546 76.0411 68.4655C70.4963 60.0636 60.9734 54.5174 50.155 54.5174C33.0375 54.5174 19.1621 68.3941 19.1621 85.5116C19.1621 85.6162 19.1648 85.7207 19.1661 85.8252C8.2908 87.6343 0 97.083 0 108.472C0 121.152 10.2798 131.432 22.9601 131.432H101.727C114.408 131.432 124.688 121.152 124.688 108.472C124.688 95.7901 114.408 85.5103 101.727 85.5103Z" fill="url(#paint9_radial_1_14825)"/>
<path d="M124.688 108.471C124.688 121.152 114.408 131.431 101.727 131.431C89.0471 131.431 78.7673 121.152 78.7673 108.471C78.7673 95.7896 89.0471 85.5098 101.727 85.5098C114.408 85.5098 124.688 95.7896 124.688 108.471Z" fill="url(#paint10_linear_1_14825)"/>
<path d="M101.727 81.6602C101.727 90.6272 94.4581 97.8964 85.4924 97.8964C76.5254 97.8964 69.2562 90.6272 69.2562 81.6602C69.2562 72.6945 76.5254 65.4253 85.4924 65.4253C94.4581 65.4253 101.727 72.6945 101.727 81.6602Z" fill="url(#paint11_linear_1_14825)"/>
<path d="M81.1478 85.5103C81.1478 102.628 67.2712 116.505 50.1549 116.505C33.0374 116.505 19.1607 102.628 19.1607 85.5103C19.1607 68.3941 33.0374 54.5174 50.1549 54.5174C67.2712 54.5174 81.1478 68.3941 81.1478 85.5103Z" fill="url(#paint12_linear_1_14825)"/>
<path d="M45.9203 108.471C45.9203 121.152 35.6418 131.431 22.9601 131.431C10.2798 131.431 0 121.152 0 108.471C0 95.7896 10.2798 85.5098 22.9601 85.5098C35.6418 85.5098 45.9203 95.7896 45.9203 108.471Z" fill="url(#paint13_linear_1_14825)"/>
<path d="M0.212555 111.599C1.73838 122.801 11.3406 131.433 22.9596 131.433H101.727C113.346 131.433 122.948 122.801 124.474 111.599H0.212555Z" fill="url(#paint14_linear_1_14825)"/>
<defs>
<linearGradient id="paint0_linear_1_14825" x1="105.326" y1="19.5723" x2="119.201" y2="24.6553" gradientUnits="userSpaceOnUse">
<stop stop-color="#F7E07D"/>
<stop offset="1" stop-color="#E69642"/>
</linearGradient>
<linearGradient id="paint1_linear_1_14825" x1="65.914" y1="117.909" x2="79.7892" y2="122.992" gradientUnits="userSpaceOnUse">
<stop stop-color="#F7E07D"/>
<stop offset="1" stop-color="#E69642"/>
</linearGradient>
<linearGradient id="paint2_linear_1_14825" x1="130.157" y1="87.5684" x2="150.822" y2="95.1391" gradientUnits="userSpaceOnUse">
<stop stop-color="#F7E07D"/>
<stop offset="1" stop-color="#E69642"/>
</linearGradient>
<linearGradient id="paint3_linear_1_14825" x1="34.0972" y1="47.2254" x2="54.762" y2="54.796" gradientUnits="userSpaceOnUse">
<stop stop-color="#F7E07D"/>
<stop offset="1" stop-color="#E69642"/>
</linearGradient>
<linearGradient id="paint4_linear_1_14825" x1="131.002" y1="47.2715" x2="149.767" y2="54.1458" gradientUnits="userSpaceOnUse">
<stop stop-color="#F7E07D"/>
<stop offset="1" stop-color="#E69642"/>
</linearGradient>
<linearGradient id="paint5_linear_1_14825" x1="35.2066" y1="88.278" x2="53.9715" y2="95.1524" gradientUnits="userSpaceOnUse">
<stop stop-color="#F7E07D"/>
<stop offset="1" stop-color="#E69642"/>
</linearGradient>
<linearGradient id="paint6_linear_1_14825" x1="63.2322" y1="18.8004" x2="81.6939" y2="25.5637" gradientUnits="userSpaceOnUse">
<stop stop-color="#F7E07D"/>
<stop offset="1" stop-color="#E69642"/>
</linearGradient>
<linearGradient id="paint7_linear_1_14825" x1="69.4458" y1="47.614" x2="107.098" y2="84.3973" gradientUnits="userSpaceOnUse">
<stop stop-color="#F7E07D"/>
<stop offset="1" stop-color="#E69642"/>
</linearGradient>
<linearGradient id="paint8_linear_1_14825" x1="96.8866" y1="60.1465" x2="83.2361" y2="95.8967" gradientUnits="userSpaceOnUse">
<stop stop-color="#D52C1C" stop-opacity="0"/>
<stop offset="0.2813" stop-color="#CC2C20" stop-opacity="0.281"/>
<stop offset="0.7301" stop-color="#B52B2A" stop-opacity="0.73"/>
<stop offset="1" stop-color="#A42B31"/>
</linearGradient>
<radialGradient id="paint9_radial_1_14825" cx="0" cy="0" r="1" gradientUnits="userSpaceOnUse" gradientTransform="translate(41.2333 46.0857) scale(94.6082 94.6082)">
<stop stop-color="#ECF7FF"/>
<stop offset="0.3473" stop-color="#E9F5FF"/>
<stop offset="0.62" stop-color="#DFF0FF"/>
<stop offset="0.8666" stop-color="#CEE7FF"/>
<stop offset="1" stop-color="#C2E0FF"/>
</radialGradient>
<linearGradient id="paint10_linear_1_14825" x1="101.47" y1="109.248" x2="115.107" y2="68.1056" gradientUnits="userSpaceOnUse">
<stop offset="0.0029" stop-color="#C2E0FF" stop-opacity="0"/>
<stop offset="0.0763" stop-color="#BFDCFD" stop-opacity="0.07451"/>
<stop offset="1" stop-color="#9EB2E7"/>
</linearGradient>
<linearGradient id="paint11_linear_1_14825" x1="85.869" y1="81.1016" x2="103.402" y2="55.1059" gradientUnits="userSpaceOnUse">
<stop offset="0.0029" stop-color="#C2E0FF" stop-opacity="0"/>
<stop offset="0.0763" stop-color="#BFDCFD" stop-opacity="0.07451"/>
<stop offset="1" stop-color="#9EB2E7"/>
</linearGradient>
<linearGradient id="paint12_linear_1_14825" x1="50.1545" y1="85.6653" x2="50.1545" y2="40.7712" gradientUnits="userSpaceOnUse">
<stop offset="0.0029" stop-color="#C2E0FF" stop-opacity="0"/>
<stop offset="0.0763" stop-color="#BFDCFD" stop-opacity="0.07451"/>
<stop offset="1" stop-color="#9EB2E7"/>
</linearGradient>
<linearGradient id="paint13_linear_1_14825" x1="23.3659" y1="108.854" x2="-4.31158" y2="82.6963" gradientUnits="userSpaceOnUse">
<stop offset="0.0029" stop-color="#C2E0FF" stop-opacity="0"/>
<stop offset="0.0763" stop-color="#BFDCFD" stop-opacity="0.07451"/>
<stop offset="1" stop-color="#9EB2E7"/>
</linearGradient>
<linearGradient id="paint14_linear_1_14825" x1="62.3435" y1="114.792" x2="62.3435" y2="146.759" gradientUnits="userSpaceOnUse">
<stop offset="0.0029" stop-color="#C2E0FF" stop-opacity="0"/>
<stop offset="0.0763" stop-color="#BFDCFD" stop-opacity="0.07451"/>
<stop offset="1" stop-color="#9EB2E7"/>
</linearGradient>
</defs>
</svg>
