<svg width="146" height="56" viewBox="0 0 146 56" fill="none" xmlns="http://www.w3.org/2000/svg">
<g filter="url(#filter0_b_49_2251)">
<rect width="146" height="56" rx="16" fill="white"/>
<path d="M74.9503 19.7273V35H73.1009V21.6662H73.0114L69.2827 24.142V22.2628L73.1009 19.7273H74.9503ZM79.3427 35V33.6577L84.3839 28.1392C84.9755 27.4929 85.4627 26.9311 85.8455 26.4538C86.2283 25.9716 86.5117 25.5192 86.6957 25.0966C86.8846 24.669 86.979 24.2216 86.979 23.7543C86.979 23.2173 86.8498 22.7525 86.5913 22.3597C86.3377 21.967 85.9897 21.6637 85.5472 21.4499C85.1048 21.2362 84.6076 21.1293 84.0558 21.1293C83.4691 21.1293 82.957 21.2511 82.5195 21.4947C82.087 21.7333 81.7514 22.0689 81.5128 22.5014C81.2791 22.9339 81.1623 23.4411 81.1623 24.0227H79.4023C79.4023 23.1278 79.6087 22.3423 80.0213 21.6662C80.4339 20.9901 80.9957 20.4631 81.7067 20.0852C82.4226 19.7074 83.2255 19.5185 84.1154 19.5185C85.0103 19.5185 85.8033 19.7074 86.4943 20.0852C87.1854 20.4631 87.7273 20.9727 88.12 21.614C88.5128 22.2553 88.7092 22.9688 88.7092 23.7543C88.7092 24.3161 88.6072 24.8654 88.4034 25.4023C88.2045 25.9343 87.8565 26.5284 87.3594 27.1847C86.8672 27.8359 86.1836 28.6314 85.3086 29.571L81.8782 33.2401V33.3594H88.9776V35H79.3427ZM110.522 24.5H108.673C108.563 23.968 108.372 23.5007 108.098 23.098C107.83 22.6953 107.502 22.3572 107.114 22.0838C106.731 21.8054 106.306 21.5966 105.839 21.4574C105.371 21.3182 104.884 21.2486 104.377 21.2486C103.452 21.2486 102.615 21.4822 101.864 21.9496C101.118 22.4169 100.524 23.1055 100.082 24.0153C99.6442 24.9251 99.4254 26.0412 99.4254 27.3636C99.4254 28.6861 99.6442 29.8022 100.082 30.712C100.524 31.6218 101.118 32.3104 101.864 32.7777C102.615 33.245 103.452 33.4787 104.377 33.4787C104.884 33.4787 105.371 33.4091 105.839 33.2699C106.306 33.1307 106.731 32.9244 107.114 32.6509C107.502 32.3725 107.83 32.032 108.098 31.6293C108.372 31.2216 108.563 30.7543 108.673 30.2273H110.522C110.383 31.0078 110.129 31.7063 109.761 32.3228C109.393 32.9393 108.936 33.4638 108.389 33.8963C107.842 34.3239 107.228 34.6495 106.547 34.8732C105.871 35.0969 105.148 35.2088 104.377 35.2088C103.075 35.2088 101.916 34.8906 100.902 34.2543C99.8878 33.6179 99.0898 32.7131 98.5082 31.5398C97.9265 30.3665 97.6357 28.9744 97.6357 27.3636C97.6357 25.7528 97.9265 24.3608 98.5082 23.1875C99.0898 22.0142 99.8878 21.1094 100.902 20.473C101.916 19.8366 103.075 19.5185 104.377 19.5185C105.148 19.5185 105.871 19.6303 106.547 19.854C107.228 20.0778 107.842 20.4059 108.389 20.8384C108.936 21.266 109.393 21.788 109.761 22.4045C110.129 23.016 110.383 23.7145 110.522 24.5ZM116.434 26.4688C115.802 26.4688 115.226 26.3146 114.704 26.0064C114.187 25.6982 113.774 25.2855 113.466 24.7685C113.158 24.2464 113.003 23.6697 113.003 23.0384C113.003 22.407 113.158 21.8327 113.466 21.3157C113.774 20.7937 114.187 20.3786 114.704 20.0703C115.226 19.7621 115.802 19.608 116.434 19.608C117.065 19.608 117.639 19.7621 118.157 20.0703C118.679 20.3786 119.094 20.7937 119.402 21.3157C119.71 21.8327 119.864 22.407 119.864 23.0384C119.864 23.6697 119.71 24.2464 119.402 24.7685C119.094 25.2855 118.679 25.6982 118.157 26.0064C117.639 26.3146 117.065 26.4688 116.434 26.4688ZM116.434 24.9773C116.792 24.9773 117.117 24.8903 117.411 24.7163C117.704 24.5423 117.938 24.3086 118.112 24.0153C118.286 23.7219 118.373 23.3963 118.373 23.0384C118.373 22.6804 118.286 22.3548 118.112 22.0614C117.938 21.7681 117.704 21.5344 117.411 21.3604C117.117 21.1864 116.792 21.0994 116.434 21.0994C116.076 21.0994 115.75 21.1864 115.457 21.3604C115.164 21.5344 114.93 21.7681 114.756 22.0614C114.582 22.3548 114.495 22.6804 114.495 23.0384C114.495 23.3963 114.582 23.7219 114.756 24.0153C114.93 24.3086 115.164 24.5423 115.457 24.7163C115.75 24.8903 116.076 24.9773 116.434 24.9773Z" fill="#6D7784"/>
<path d="M46.6447 15.4999C47.1269 15.7024 47.6781 15.4665 47.876 14.9729L48.2435 14.056C48.4413 13.5624 48.2108 12.9981 47.7286 12.7956C47.2464 12.5931 46.6952 12.8291 46.4973 13.3227L46.1298 14.2395C45.9319 14.7331 46.1625 15.2974 46.6447 15.4999Z" fill="url(#paint0_linear_49_2251)"/>
<path d="M38.8984 34.8279C38.4161 34.6254 37.8649 34.8613 37.6671 35.3549L37.2996 36.2717C37.1017 36.7653 37.3323 37.3296 37.8144 37.5322C38.2966 37.7347 38.8479 37.4987 39.0457 37.0052L39.4132 36.0883C39.6111 35.5947 39.3806 35.0304 38.8984 34.8279V34.8279Z" fill="url(#paint1_linear_49_2251)"/>
<path d="M54.3387 28.9767L53.443 28.6005C52.9608 28.398 52.4095 28.6339 52.2117 29.1275C52.0138 29.6211 52.2443 30.1854 52.7265 30.388L53.6222 30.7641C54.1044 30.9666 54.6557 30.7307 54.8535 30.2371C55.0514 29.7435 54.8209 29.1792 54.3387 28.9767V28.9767Z" fill="url(#paint2_linear_49_2251)"/>
<path d="M31.2042 21.3494L32.0999 21.7256C32.5821 21.9281 33.1334 21.6921 33.3312 21.1985C33.529 20.7049 33.2985 20.1407 32.8163 19.9381L31.9206 19.5619C31.4384 19.3594 30.8872 19.5954 30.6893 20.089H30.6893C30.4915 20.5825 30.722 21.1468 31.2042 21.3494V21.3494Z" fill="url(#paint3_linear_49_2251)"/>
<path d="M52.1856 21.1336C52.3867 21.6258 52.9395 21.8579 53.4203 21.6521L54.3135 21.2698C54.7944 21.064 55.0211 20.4981 54.8201 20.0059C54.619 19.5137 54.0662 19.2815 53.5854 19.4873L52.6921 19.8697C52.2113 20.0755 51.9845 20.6414 52.1856 21.1336V21.1336Z" fill="url(#paint4_linear_49_2251)"/>
<path d="M32.1226 28.6746L31.2295 29.0569C30.7486 29.2628 30.5218 29.8286 30.7229 30.3208C30.9239 30.813 31.4767 31.0452 31.9576 30.8394L32.8508 30.4571C33.3317 30.2513 33.5585 29.6854 33.3575 29.1932C33.1563 28.7009 32.6034 28.4688 32.1226 28.6746V28.6746Z" fill="url(#paint5_linear_49_2251)"/>
<path d="M47.9426 35.3169C47.7416 34.8246 47.1887 34.5925 46.7079 34.7983C46.227 35.0041 46.0002 35.57 46.2013 36.0622L46.5748 36.9765C46.7758 37.4687 47.3287 37.7009 47.8095 37.4951C48.2904 37.2893 48.5172 36.7234 48.3161 36.2312L47.9426 35.3169Z" fill="url(#paint6_linear_49_2251)"/>
<path d="M38.8349 15.5261C39.3158 15.3202 39.5426 14.7544 39.3415 14.2622L38.968 13.3479C38.767 12.8557 38.2141 12.6235 37.7333 12.8293C37.2524 13.0351 37.0256 13.601 37.2267 14.0932L37.6002 15.0076C37.8012 15.4997 38.3541 15.7319 38.8349 15.5261Z" fill="url(#paint7_linear_49_2251)"/>
<path d="M42.7716 34.9576C48.0562 34.9576 52.3403 30.5724 52.3403 25.1629C52.3403 19.7534 48.0562 15.3681 42.7716 15.3681C37.4869 15.3681 33.2029 19.7534 33.2029 25.1629C33.2029 30.5724 37.4869 34.9576 42.7716 34.9576Z" fill="url(#paint8_linear_49_2251)"/>
<path d="M42.7716 34.9576C48.0562 34.9576 52.3403 30.5724 52.3403 25.1629C52.3403 19.7534 48.0562 15.3681 42.7716 15.3681C37.4869 15.3681 33.2029 19.7534 33.2029 25.1629C33.2029 30.5724 37.4869 34.9576 42.7716 34.9576Z" fill="url(#paint9_linear_49_2251)"/>
<path d="M47.8683 32.4536C47.9915 32.0705 48.0592 31.6615 48.0592 31.2362C48.0592 29.088 46.3579 27.3466 44.2594 27.3466C43.6466 27.3466 43.0682 27.496 42.5557 27.7597C41.4042 25.1534 38.8419 23.3398 35.8657 23.3398C31.8127 23.3398 28.5272 26.703 28.5272 30.8517C28.5272 31.4913 28.6055 32.1121 28.7525 32.7049C26.6199 33.4028 25.0756 35.4478 25.0756 37.8623C25.0756 40.8522 27.4435 43.2761 30.3644 43.2761H47.6457C47.6457 43.2761 52.9345 40.8522 52.9345 37.8623C52.9345 34.9487 50.686 32.5731 47.8683 32.4536V32.4536Z" fill="url(#paint10_linear_49_2251)"/>
<path d="M48.0592 31.2368C48.0592 31.6617 47.9925 32.0711 47.8691 32.4541C47.7953 32.4508 47.7205 32.4491 47.6457 32.4491C45.766 32.4491 44.1153 33.4533 43.1779 34.9658C41.6063 34.4894 40.4597 33.0004 40.4597 31.2368C40.4597 29.0885 42.1608 27.3473 44.2595 27.3473C46.3582 27.3473 48.0592 29.0886 48.0592 31.2368V31.2368Z" fill="url(#paint11_linear_49_2251)"/>
<path d="M42.258 34.5431C40.9989 36.824 38.6079 38.3633 35.8657 38.3633C31.813 38.3633 28.5273 35.0005 28.5273 30.8516C28.5273 26.7032 31.813 23.3398 35.8657 23.3398C38.8417 23.3398 41.4042 25.1532 42.5556 27.7588C41.3123 28.398 40.4597 29.7153 40.4597 31.2362C40.4597 32.6325 41.1786 33.857 42.258 34.5431Z" fill="url(#paint12_linear_49_2251)"/>
<path d="M25.0756 37.8631C25.0756 40.8531 27.4435 43.2769 30.3644 43.2769H47.6457C47.6457 43.2769 52.9345 40.8531 52.9345 37.8631C52.9345 37.2833 52.8452 36.725 52.6804 36.2014H25.3304C25.1655 36.7251 25.0756 37.2833 25.0756 37.8631H25.0756Z" fill="url(#paint13_linear_49_2251)"/>
<rect x="0.5" y="0.5" width="145" height="55" rx="15.5" stroke="#DAE9F4"/>
</g>
<defs>
<filter id="filter0_b_49_2251" x="-4" y="-4" width="154" height="64" filterUnits="userSpaceOnUse" color-interpolation-filters="sRGB">
<feFlood flood-opacity="0" result="BackgroundImageFix"/>
<feGaussianBlur in="BackgroundImageFix" stdDeviation="2"/>
<feComposite in2="SourceAlpha" operator="in" result="effect1_backgroundBlur_49_2251"/>
<feBlend mode="normal" in="SourceGraphic" in2="effect1_backgroundBlur_49_2251" result="shape"/>
</filter>
<linearGradient id="paint0_linear_49_2251" x1="45.5875" y1="13.5339" x2="48.6962" y2="14.6727" gradientUnits="userSpaceOnUse">
<stop stop-color="#F7E07D"/>
<stop offset="1" stop-color="#E69642"/>
</linearGradient>
<linearGradient id="paint1_linear_49_2251" x1="36.7573" y1="35.5662" x2="39.866" y2="36.7051" gradientUnits="userSpaceOnUse">
<stop stop-color="#F7E07D"/>
<stop offset="1" stop-color="#E69642"/>
</linearGradient>
<linearGradient id="paint2_linear_49_2251" x1="51.151" y1="28.7681" x2="55.7809" y2="30.4643" gradientUnits="userSpaceOnUse">
<stop stop-color="#F7E07D"/>
<stop offset="1" stop-color="#E69642"/>
</linearGradient>
<linearGradient id="paint3_linear_49_2251" x1="29.6286" y1="19.7295" x2="34.2586" y2="21.4257" gradientUnits="userSpaceOnUse">
<stop stop-color="#F7E07D"/>
<stop offset="1" stop-color="#E69642"/>
</linearGradient>
<linearGradient id="paint4_linear_49_2251" x1="51.3401" y1="19.7396" x2="55.5444" y2="21.2798" gradientUnits="userSpaceOnUse">
<stop stop-color="#F7E07D"/>
<stop offset="1" stop-color="#E69642"/>
</linearGradient>
<linearGradient id="paint5_linear_49_2251" x1="29.8774" y1="28.9268" x2="34.0817" y2="30.467" gradientUnits="userSpaceOnUse">
<stop stop-color="#F7E07D"/>
<stop offset="1" stop-color="#E69642"/>
</linearGradient>
<linearGradient id="paint6_linear_49_2251" x1="45.1309" y1="35.33" x2="49.2673" y2="36.8453" gradientUnits="userSpaceOnUse">
<stop stop-color="#F7E07D"/>
<stop offset="1" stop-color="#E69642"/>
</linearGradient>
<linearGradient id="paint7_linear_49_2251" x1="36.1564" y1="13.361" x2="40.2927" y2="14.8762" gradientUnits="userSpaceOnUse">
<stop stop-color="#F7E07D"/>
<stop offset="1" stop-color="#E69642"/>
</linearGradient>
<linearGradient id="paint8_linear_49_2251" x1="37.5483" y1="19.8162" x2="45.9843" y2="28.0575" gradientUnits="userSpaceOnUse">
<stop stop-color="#F7E07D"/>
<stop offset="1" stop-color="#E69642"/>
</linearGradient>
<linearGradient id="paint9_linear_49_2251" x1="43.6967" y1="22.6244" x2="40.6383" y2="30.6341" gradientUnits="userSpaceOnUse">
<stop stop-color="#D52C1C" stop-opacity="0"/>
<stop offset="0.2813" stop-color="#CC2C20" stop-opacity="0.281"/>
<stop offset="0.7301" stop-color="#B52B2A" stop-opacity="0.73"/>
<stop offset="1" stop-color="#A42B31"/>
</linearGradient>
<linearGradient id="paint10_linear_49_2251" x1="29.2615" y1="27.3865" x2="44.4179" y2="42.1931" gradientUnits="userSpaceOnUse">
<stop stop-color="#EEF4FF"/>
<stop offset="1" stop-color="#CFE7FD"/>
</linearGradient>
<linearGradient id="paint11_linear_49_2251" x1="43.6482" y1="31.1566" x2="49.346" y2="31.1566" gradientUnits="userSpaceOnUse">
<stop stop-color="#8AAADC" stop-opacity="0"/>
<stop offset="1" stop-color="#8AAADC"/>
</linearGradient>
<linearGradient id="paint12_linear_49_2251" x1="37.8588" y1="28.8319" x2="43.4476" y2="23.4267" gradientUnits="userSpaceOnUse">
<stop stop-color="#8AAADC" stop-opacity="0"/>
<stop offset="1" stop-color="#8AAADC"/>
</linearGradient>
<linearGradient id="paint13_linear_49_2251" x1="39.005" y1="39.4445" x2="39.005" y2="44.2173" gradientUnits="userSpaceOnUse">
<stop stop-color="#A9CBFF" stop-opacity="0"/>
<stop offset="0.0625" stop-color="#D0E2FF" stop-opacity="0.0625"/>
<stop offset="1" stop-color="#AFCEFF"/>
</linearGradient>
</defs>
</svg>
