<svg width="48" height="48" viewBox="0 0 48 48" fill="none" xmlns="http://www.w3.org/2000/svg">
<rect width="48" height="48" rx="12" fill="white"/>
<path d="M12.0219 27.099C13.4151 32.5475 18.3386 36.4284 23.9992 36.4284C29.6592 36.4284 34.5827 32.5475 35.9765 27.099C37.4487 26.8368 38.5706 25.5402 38.5706 23.9846C38.5706 22.4296 37.4487 21.1323 35.9765 20.8708C34.7231 15.9712 30.6168 12.34 25.687 11.6579C25.687 11.6579 23.6987 11.5137 22.8216 11.5975C17.6664 12.0925 13.3178 15.8031 12.0218 20.8708C10.5496 21.1323 9.42773 22.4296 9.42773 23.9846C9.42786 25.5402 10.5497 26.8368 12.0219 27.099ZM12.6943 22.7189C13.1763 22.7649 13.6125 22.4352 13.7046 21.9581C14.6591 17.0176 18.9886 13.4323 23.9992 13.4323C29.0099 13.4323 33.3393 17.0176 34.2938 21.9581C34.386 22.4352 34.8234 22.7649 35.3041 22.7189C36.0734 22.6505 36.6904 23.2554 36.6904 23.9846C36.6904 24.7131 36.0741 25.3187 35.3041 25.2503C34.8234 25.2043 34.386 25.534 34.2938 26.0111C33.3393 30.9515 29.0099 34.5374 23.9992 34.5374C18.9879 34.5374 14.6585 30.9515 13.7046 26.0117C13.6166 25.5553 13.2027 25.2067 12.6943 25.2502C11.925 25.3186 11.308 24.7138 11.308 23.9845C11.3081 23.256 11.9243 22.6505 12.6943 22.7189Z" fill="#4F5864"/>
<path d="M19.444 24.2219C20.03 24.2219 20.8692 24.0252 21.7272 23.1617C22.0938 22.7923 22.0938 22.1941 21.7266 21.8248C21.3593 21.4554 20.7639 21.4554 20.3972 21.8248C20.0544 22.1702 19.7273 22.341 19.4221 22.3303C19.0303 22.3183 18.6712 22.012 18.5553 21.8846C18.0552 21.3432 17.488 21.3791 17.1207 21.7485C16.7535 22.1179 16.7497 22.7337 17.117 23.1024C17.6151 23.6967 18.5101 24.2219 19.444 24.2219Z" fill="#4F5864"/>
<path d="M28.5425 24.2219C29.1285 24.2219 29.9677 24.0252 30.8257 23.1617C31.1924 22.7923 31.1924 22.1941 30.8251 21.8248C30.4578 21.4554 29.8624 21.4554 29.4958 21.8248C29.153 22.1702 28.8258 22.341 28.5206 22.3303C28.1289 22.3183 27.7698 22.012 27.6538 21.8846C27.1537 21.3432 26.5865 21.3791 26.2193 21.7485C25.852 22.1179 25.8483 22.7337 26.2155 23.1024C26.7136 23.6967 27.6086 24.2219 28.5425 24.2219Z" fill="#4F5864"/>
</svg>
