<svg width="56" height="56" viewBox="0 0 56 56" fill="none" xmlns="http://www.w3.org/2000/svg">
<rect x="0.5" y="0.5" width="55" height="55" rx="15.5" fill="white"/>
<path d="M14.748 36V20H20.1543C21.4043 20 22.4303 20.2135 23.2324 20.6406C24.0345 21.0625 24.6283 21.6432 25.0137 22.3828C25.3991 23.1224 25.5918 23.9635 25.5918 24.9062C25.5918 25.849 25.3991 26.6849 25.0137 27.4141C24.6283 28.1432 24.0371 28.7161 23.2402 29.1328C22.4434 29.5443 21.4251 29.75 20.1855 29.75H15.8105V28H20.123C20.9772 28 21.6647 27.875 22.1855 27.625C22.7116 27.375 23.0918 27.0208 23.3262 26.5625C23.5658 26.099 23.6855 25.5469 23.6855 24.9062C23.6855 24.2656 23.5658 23.7057 23.3262 23.2266C23.0866 22.7474 22.7038 22.3776 22.1777 22.1172C21.6517 21.8516 20.9564 21.7187 20.0918 21.7187H16.6855V36H14.748ZM22.2793 28.8125L26.2168 36H23.9668L20.0918 28.8125H22.2793ZM39.3203 20H41.2578V30.5937C41.2578 31.6875 41 32.6641 40.4844 33.5234C39.974 34.3776 39.2526 35.0521 38.3203 35.5469C37.388 36.0365 36.2943 36.2813 35.0391 36.2813C33.7839 36.2813 32.6901 36.0365 31.7578 35.5469C30.8255 35.0521 30.1016 34.3776 29.5859 33.5234C29.0755 32.6641 28.8203 31.6875 28.8203 30.5937V20H30.7578V30.4375C30.7578 31.2187 30.9297 31.9141 31.2734 32.5234C31.6172 33.1276 32.1068 33.6042 32.7422 33.9531C33.3828 34.2969 34.1484 34.4687 35.0391 34.4687C35.9297 34.4687 36.6953 34.2969 37.3359 33.9531C37.9766 33.6042 38.4661 33.1276 38.8047 32.5234C39.1484 31.9141 39.3203 31.2187 39.3203 30.4375V20Z" fill="#6D7784"/>
<rect x="0.5" y="0.5" width="55" height="55" rx="15.5" stroke="#DAE9F4"/>
</svg>
