<svg width="12" height="18" viewBox="0 0 12 18" fill="none" xmlns="http://www.w3.org/2000/svg">
<mask id="path-1-inside-1_123_293" fill="white">
<path d="M0.988416 8.9942C0.988416 8.78789 1.06727 8.58138 1.22478 8.42387L9.29177 0.356881C9.60698 0.0416634 10.3364 0.167219 10.6515 0.482436C10.9665 0.797654 11.1488 1.56381 10.8336 1.87882L3.55619 8.9942L10.8336 16.1902C11.1488 16.5054 11.0097 17.222 10.6944 17.5371C10.3792 17.8521 9.60678 17.9468 9.29177 17.6315L1.22478 9.56454C1.06727 9.40703 0.988416 9.20052 0.988416 8.9942Z"/>
</mask>
<path d="M0.988416 8.9942C0.988416 8.78789 1.06727 8.58138 1.22478 8.42387L9.29177 0.356881C9.60698 0.0416634 10.3364 0.167219 10.6515 0.482436C10.9665 0.797654 11.1488 1.56381 10.8336 1.87882L3.55619 8.9942L10.8336 16.1902C11.1488 16.5054 11.0097 17.222 10.6944 17.5371C10.3792 17.8521 9.60678 17.9468 9.29177 17.6315L1.22478 9.56454C1.06727 9.40703 0.988416 9.20052 0.988416 8.9942Z" fill="#4F5864"/>
<path d="M1.22478 8.42387L-1.60365 5.59544L-1.60365 5.59544L1.22478 8.42387ZM9.29177 0.356881L12.1202 3.18531L12.1202 3.18531L9.29177 0.356881ZM10.8336 1.87882L13.63 4.7389L13.6456 4.72361L13.6611 4.70815L10.8336 1.87882ZM3.55619 8.99421L0.759778 6.13413L-2.14898 8.97814L0.743715 11.8385L3.55619 8.99421ZM10.8336 16.1902L13.662 13.3618L13.654 13.3538L13.646 13.3459L10.8336 16.1902ZM9.29177 17.6315L12.1211 14.804L12.1202 14.8031L9.29177 17.6315ZM1.22478 9.56454L4.05321 6.73612L4.05321 6.73612L1.22478 9.56454ZM4.98842 8.99421C4.98842 9.80663 4.67511 10.6304 4.05321 11.2523L-1.60365 5.59544C-2.54057 6.53237 -3.01158 7.76915 -3.01158 8.9942L4.98842 8.99421ZM4.05321 11.2523L12.1202 3.18531L6.46334 -2.47155L-1.60365 5.59544L4.05321 11.2523ZM12.1202 3.18531C11.5522 3.75327 10.9287 3.9943 10.5076 4.09321C10.0869 4.19203 9.73648 4.18377 9.49433 4.15466C9.11671 4.10927 8.45656 3.94481 7.82212 3.30996L13.4808 -2.34509C12.5313 -3.29515 11.3489 -3.68 10.449 -3.78817C9.63269 -3.88629 7.87181 -3.88002 6.46334 -2.47155L12.1202 3.18531ZM7.82212 3.30996C7.49133 2.97895 7.31817 2.66476 7.23198 2.47995C7.13772 2.27783 7.072 2.06814 7.03446 1.84541C6.99894 1.63459 6.96761 1.28668 7.04866 0.846968C7.12965 0.407615 7.36182 -0.306693 8.00605 -0.95051L13.6611 4.70815C15.2063 3.16395 15.0419 1.22044 14.9232 0.515998C14.7788 -0.341229 14.3726 -1.45266 13.4808 -2.34509L7.82212 3.30996ZM8.03715 -0.981258L0.759778 6.13413L6.35261 11.8543L13.63 4.7389L8.03715 -0.981258ZM0.743715 11.8385L8.02109 19.0345L13.646 13.3459L6.36867 6.14992L0.743715 11.8385ZM8.00514 19.0186C6.89252 17.906 6.99463 16.6381 7.03629 16.3292C7.08966 15.9334 7.26666 15.3076 7.86692 14.7077L13.522 20.3664C14.4374 19.4515 14.8416 18.3099 14.9645 17.3983C15.0758 16.5734 15.0898 14.7896 13.662 13.3618L8.00514 19.0186ZM7.86692 14.7077C8.27148 14.3034 8.67326 14.1055 8.91202 14.0108C9.16982 13.9085 9.4157 13.8557 9.64651 13.8357C9.87138 13.8161 10.1905 13.8183 10.5732 13.9144C10.9449 14.0077 11.5545 14.237 12.1211 14.804L6.46243 20.4591C7.8378 21.8353 9.56358 21.8731 10.3395 21.8056C11.1923 21.7314 12.4836 21.4041 13.522 20.3664L7.86692 14.7077ZM12.1202 14.8031L4.05321 6.73612L-1.60365 12.393L6.46334 20.46L12.1202 14.8031ZM4.05321 6.73612C4.67512 7.35803 4.98842 8.18179 4.98842 8.99421L-3.01158 8.9942C-3.01158 10.2193 -2.54058 11.456 -1.60365 12.393L4.05321 6.73612Z" fill="#4F5864" mask="url(#path-1-inside-1_123_293)"/>
</svg>
