<svg width="48" height="48" viewBox="0 0 48 48" fill="none" xmlns="http://www.w3.org/2000/svg">
<rect width="48" height="48" rx="12" fill="white"/>
<path d="M16.625 24.7117C18.1663 24.7117 19.5238 23.9512 20.3619 22.7865C21.1695 23.9487 22.5095 24.7117 24.0294 24.7117C25.5453 24.7117 26.8842 23.9527 27.6925 22.7956C28.5257 23.9546 29.8837 24.7117 31.417 24.7117C34.3582 24.7117 36.5826 21.8604 35.8641 19.0063L34.4619 13.4371C34.2489 12.5909 33.4901 12 32.6172 12H15.3722C14.4993 12 13.7408 12.5909 13.5278 13.4371L12.1346 18.9732C11.7371 20.552 12.2596 21.9278 13.1823 23.1803V34.099C13.1823 35.1472 14.0282 36 15.077 36H32.9195C33.9682 36 34.8145 35.1472 34.8145 34.099V27.0179C34.8145 26.5586 34.4283 26.1862 33.9687 26.1862C33.5092 26.1862 33.1229 26.5585 33.1229 27.0179V34.0991C33.1229 34.2302 33.0505 34.359 32.9195 34.359H27.6892H27.4334C26.7394 34.359 26.7971 34.359 26.3376 34.359H21.6212C21.1616 34.359 22.2629 34.359 21.0145 34.359H20.3076H15.077C14.9459 34.359 14.8739 34.2301 14.8739 34.0991V24.3625C15.3865 24.5907 16.0066 24.7117 16.625 24.7117ZM28.5094 13.641H32.6172C32.7263 13.641 32.8211 13.7261 32.8477 13.8318L34.2497 19.4065C34.7055 21.2175 33.2946 23.0455 31.4237 23.0455C29.8124 23.0455 28.5094 21.7373 28.5094 20.1257V13.641ZM21.2303 13.641H26.869V20.1257C26.869 21.6913 25.6447 23.0483 24.0465 23.0483C22.4222 23.0483 21.2303 21.6761 21.2303 20.0991V13.641ZM23.0332 34.359H24.1902H25.9976H21.9992H23.0332ZM13.7471 19.3791L15.1412 13.8319C15.1678 13.7261 15.2631 13.6411 15.3722 13.6411H19.5387V20.0992C19.5387 21.7247 18.2258 23.0472 16.6008 23.0483C14.7101 23.0472 13.2856 21.2123 13.7471 19.3791Z" fill="#4F5864"/>
</svg>
