<svg width="48" height="48" viewBox="0 0 48 48" fill="none" xmlns="http://www.w3.org/2000/svg">
<rect width="48" height="48" rx="12" fill="white"/>
<path d="M18.6424 36.5276H18.6424H24.0055C25.7929 36.5276 27.5801 36.5278 29.367 36.5283H29.3671C31.8014 36.526 33.8132 34.4924 33.8132 32.0296V32.0191V32.0087V31.9982V31.9878V31.9774V31.9669V31.9565V31.946V31.9356V31.9251V31.9147V31.9042V31.8938V31.8833V31.8729V31.8624V31.852V31.8416V31.8311V31.8207V31.8102V31.7998V31.7893V31.7789V31.7684V31.758V31.7475V31.7371V31.7267V31.7162V31.7058V31.6953V31.6849V31.6744V31.664V31.6535V31.6431V31.6326V31.6222V31.6118V31.6013V31.5909V31.5804V31.57V31.5595V31.5491V31.5386V31.5282V31.5177V31.5073V31.4969V31.4864V31.476V31.4655V31.4551V31.4446V31.4342V31.4237V31.4133V31.4028V31.3924V31.382V31.3715V31.3611V31.3506V31.3402V31.3297V31.3193V31.3088V31.2984V31.2879V31.2775V31.2671V31.2566V31.2462V31.2357V31.2253V31.2148V31.2044V31.1939V31.1835V31.173V31.1626V31.1522V31.1417V31.1313V31.1208V31.1104V31.0999V31.0895V31.079V31.0686V31.0581V31.0477V31.0373V31.0268V31.0164V31.0059V30.9955V30.985V30.9746V30.9641V30.9537V30.9432V30.9328V30.9224V30.9119V30.9015V30.891V30.8806V30.8701V30.8597V30.8492V30.8388V30.8284V30.8179V30.8075V30.797V30.7866V30.7761V30.7657V30.7552V30.7448V30.7343V30.7239V30.7135V30.703V30.6926V30.6821V30.6717V30.6612V30.6508V30.6403V30.6299V30.6194V30.609V30.5986V30.5881V30.5777V30.5672V30.5568V30.5463V30.5359V30.5254V30.515V30.5046V30.4941V30.4837V30.4732V30.4628V30.4523V30.4419V30.4314V30.421V30.4105V30.4001V30.3897V30.3792V30.3688V30.3583V30.3479V30.3374V30.327V30.3165V30.3061V30.2957V30.2852V30.2748V30.2643V30.2539V30.2434V30.233V30.2225V30.2121V30.2017V30.1912V30.1808V30.1703V30.1599V30.1494V30.139V30.1285V30.1181V30.1076V30.0972V30.0868V30.0763V30.0659V30.0554V30.045V30.0345V30.0241V30.0136V30.0032V29.9928V29.9823V29.9719V29.9614V29.951V29.9405V29.9301V29.9196V29.9092V29.8988V29.8883V29.8779V29.8674V29.857V29.8465V29.8361V29.8256V29.8152V29.8048V29.7943V29.7839V29.7734V29.763V29.7525V29.7421V29.7316V29.7212V29.7108V29.7003V29.6899V29.6794V29.669V29.6585V29.6481V29.6376V29.6272V29.6167V29.6063V29.5959V29.5854V29.575V29.5645V29.5541V29.5436V29.5332V29.5227V29.5123V29.5019V29.4914V29.481V29.4705V29.4601V29.4496V29.4392V29.4287V29.4183V29.4079V29.3974V29.387V29.3765V29.3661V29.3556V29.3452V29.3348V29.3243V29.3139V29.3034V29.293V29.2825V29.2721V29.2616V29.2512V29.2408V29.2303V29.2199V29.2094V29.199V29.1885V29.1781V29.1676V29.1572V29.1468V29.1363V29.1259V29.1154V29.105V29.0945V29.0841V29.0736V29.0632V29.0528V29.0423V29.0319V29.0214V29.011V29.0005V28.9901V28.9796V28.9692V28.9588V28.9483V28.9379V28.9274V28.917V28.9065V28.8961V28.8856V28.8752V28.8648V28.8543V28.8439V28.8334V28.823V28.8125V28.8021V28.7917V28.7812V28.7708V28.7603V28.7499V28.7394V28.729V28.7185V28.7081V28.6977V28.6872V28.6768V28.6663V28.6559V28.6454V28.635V28.6245V28.6141V28.6037V28.5932V28.5828V28.5723V28.5619V28.5514V28.541V28.5306V28.5201V28.5097V28.4992V28.4888V28.4783V28.4679V28.4574V28.447V28.4366V28.4261V28.4157V28.4052V28.3948V28.3843V28.3739V28.3635V28.353V28.3426V28.3321V28.3217V28.3112V28.3008V28.2903V28.2799V28.2695V28.259V28.2486V28.2381V28.2277V28.2172V28.2068V28.1964V28.1859V28.1755V28.165V28.1546V28.1441V28.1337V28.1232V28.1128V28.1024V28.0919V28.0815V28.071V28.0606V28.0501V28.0397V28.0293V28.0188V28.0084V27.9979V27.9875V27.977V27.9666V27.9561V27.9457V27.9353V27.9248V27.9144V27.9039V27.8935V27.883V27.8726V27.8622V27.8517V27.8413V27.8308V27.8204V27.8099V27.7995V27.7891V27.7786V27.7682V27.7577V27.7473V27.7368V27.7264V27.7159V27.7055V27.6951V27.6846V27.6742V27.6637V27.6533V27.6428V27.6324V27.622V27.6115V27.6011V27.5906V27.5802V27.5697V27.5593V27.5489V27.5384V27.528V27.5175V27.5071V27.4966V27.4862V27.4757V27.4653V27.4549V27.4444V27.434V27.4235V27.4131V27.4026V27.3922V27.3818V27.3713V27.3609V27.3504V27.34V27.3295V27.3191V27.3087V27.2982V27.2878V27.2773V27.2669V27.2564V27.246V27.2356V27.2251V27.2147V27.2042V27.1938V27.1833V27.1729V27.1625V27.152V27.1416V27.1311V27.1207V27.1102V27.0998V27.0893V27.0789V27.0685V27.058V27.0476V27.0371V27.0267V27.0162V27.0058V26.9954V26.9849V26.9745V26.964V26.9536V26.9431V26.9327V26.9223V26.9118V26.9014V26.8909V26.8805V26.87V26.8596V26.8492V26.8387V26.8283V26.8178V26.8074V26.7969V26.7865V26.7761V26.7656V26.7552V26.7447V26.7343V26.7238V26.7134V26.703V26.6925V26.6826C33.8178 26.5586 33.8072 26.4345 33.7815 26.3132L33.7813 26.3124C33.7274 26.0938 33.5973 25.9024 33.4152 25.774C33.233 25.6456 33.0111 25.5888 32.7908 25.6145L32.7907 25.6145C32.3189 25.6712 31.9847 26.0655 31.9847 26.5817V26.5922V26.6027V26.6132V26.6237V26.6342V26.6447V26.6552V26.6657V26.6762V26.6867V26.6972V26.7077V26.7182V26.7287V26.7392V26.7497V26.7603V26.7708V26.7813V26.7918V26.8023V26.8128V26.8233V26.8338V26.8443V26.8548V26.8653V26.8758V26.8863V26.8968V26.9073V26.9178V26.9283V26.9388V26.9493V26.9598V26.9703V26.9808V26.9913V27.0018V27.0123V27.0228V27.0333V27.0438V27.0543V27.0648V27.0753V27.0858V27.0963V27.1068V27.1173V27.1278V27.1383V27.1488V27.1593V27.1698V27.1803V27.1908V27.2013V27.2118V27.2223V27.2328V27.2433V27.2538V27.2643V27.2748V27.2853V27.2958V27.3063V27.3168V27.3273V27.3378V27.3483V27.3588V27.3693V27.3798V27.3903V27.4008V27.4113V27.4218V27.4323V27.4428V27.4533V27.4638V27.4743V27.4848V27.4953V27.5058V27.5163V27.5268V27.5373V27.5478V27.5583V27.5688V27.5793V27.5898V27.6003V27.6108V27.6213V27.6318V27.6423V27.6528V27.6633V27.6738V27.6844V27.6949V27.7054V27.7159V27.7264V27.7369V27.7474V27.7579V27.7684V27.7789V27.7894V27.7999V27.8104V27.8209V27.8314V27.8419V27.8524V27.8629V27.8734V27.8839V27.8944V27.9049V27.9154V27.9259V27.9364V27.9469V27.9574V27.9679V27.9784V27.9889V27.9994V28.0099V28.0204V28.0309V28.0414V28.0519V28.0624V28.0729V28.0834V28.0939V28.1044V28.1149V28.1254V28.1359V28.1464V28.1569V28.1674V28.1779V28.1884V28.1989V28.2094V28.2199V28.2304V28.2409V28.2514V28.2619V28.2724V28.2829V28.2934V28.3039V28.3144V28.3249V28.3354V28.3459V28.3564V28.3669V28.3774V28.3879V28.3984V28.4089V28.4194V28.4299V28.4404V28.4509V28.4614V28.4719V28.4824V28.4929V28.5034V28.5139V28.5244V28.5349V28.5454V28.5559V28.5664V28.5769V28.5874V28.5979V28.6084V28.6189V28.6294V28.6399V28.6504V28.6609V28.6714V28.6819V28.6924V28.7029V28.7134V28.7239V28.7344V28.7449V28.7554V28.7659V28.7764V28.7869V28.7973V28.8078V28.8183V28.8288V28.8393V28.8498V28.8603V28.8708V28.8813V28.8918V28.9023V28.9128V28.9233V28.9338V28.9443V28.9548V28.9653V28.9758V28.9863V28.9968V29.0073V29.0178V29.0283V29.0388V29.0493V29.0598V29.0703V29.0808V29.0913V29.1018V29.1123V29.1228V29.1333V29.1438V29.1543V29.1648V29.1753V29.1858V29.1963V29.2068V29.2173V29.2278V29.2383V29.2488V29.2593V29.2698V29.2803V29.2908V29.3013V29.3118V29.3223V29.3328V29.3433V29.3538V29.3643V29.3748V29.3853V29.3958V29.4063V29.4168V29.4273V29.4378V29.4483V29.4588V29.4693V29.4798V29.4903V29.5008V29.5113V29.5218V29.5323V29.5428V29.5533V29.5638V29.5743V29.5848V29.5953V29.6058V29.6163V29.6268V29.6373V29.6478V29.6583V29.6688V29.6793V29.6898V29.7003V29.7108V29.7213V29.7318V29.7423V29.7527V29.7632V29.7737V29.7842V29.7947V29.8052V29.8157V29.8262V29.8367V29.8472V29.8577V29.8682V29.8787V29.8892V29.8997V29.9102V29.9207V29.9312V29.9417V29.9522V29.9627V29.9732V29.9837V29.9942V30.0047V30.0152V30.0257V30.0362V30.0467V30.0572V30.0677V30.0782V30.0887V30.0992V30.1097V30.1202V30.1307V30.1412V30.1517V30.1622V30.1727V30.1832V30.1937V30.2042V30.2147V30.2252V30.2357V30.2462V30.2567V30.2672V30.2777V30.2881V30.2986V30.3091V30.3196V30.3301V30.3406V30.3511V30.3616V30.3721V30.3826V30.3931V30.4036V30.4141V30.4246V30.4351V30.4456V30.4561V30.4666V30.4771V30.4876V30.4981V30.5086V30.5191V30.5296V30.5401V30.5506V30.5611V30.5716V30.5821V30.5926V30.6031V30.6136V30.6241V30.6346V30.6451V30.6556V30.6661V30.6766V30.6871V30.6976V30.708V30.7185V30.729V30.7395V30.75V30.7605V30.771V30.7815V30.792V30.8025V30.813V30.8235V30.834V30.8445V30.855V30.8655V30.876V30.8865V30.897V30.9075V30.918V30.9285V30.939V30.9495V30.96V30.9705V30.981V30.9915V31.002V31.0125V31.023V31.0335V31.044V31.0545V31.065V31.0754V31.0859V31.0964V31.1069V31.1174V31.1279V31.1384V31.1489V31.1594V31.1699V31.1804V31.1909V31.2014V31.2119V31.2224V31.2329V31.2434V31.2539V31.2644V31.2749V31.2854V31.2959V31.3064V31.3169V31.3274V31.3379V31.3484V31.3589V31.3694V31.3799V31.3904V31.4008V31.4113V31.4218V31.4323V31.4428V31.4533V31.4638V31.4743V31.4848V31.4953V31.5058V31.5163V31.5268V31.5373V31.5478V31.5583V31.5688V31.5793V31.5898V31.6003V31.6108V31.6213V31.6318V31.6423V31.6528V31.6633V31.6738V31.6842V31.6947V31.7052V31.7157V31.7262V31.7367V31.7472V31.7577V31.7682V31.7787V31.7892V31.7997V31.8102V31.8207V31.8312V31.8417V31.8522V31.8627V31.8732V31.8837V31.8942V31.9047V31.9152V31.9257V31.9362V31.9467V31.9571C31.9847 33.4889 30.8165 34.6666 29.3107 34.6666H29.29H29.2693H29.2485H29.2278H29.2071H29.1863H29.1656H29.1449H29.1241H29.1034H29.0827H29.0619H29.0412H29.0205H28.9997H28.979H28.9583H28.9375H28.9168H28.8961H28.8753H28.8546H28.8339H28.8131H28.7924H28.7717H28.7509H28.7302H28.7095H28.6887H28.668H28.6473H28.6266H28.6058H28.5851H28.5644H28.5436H28.5229H28.5022H28.4814H28.4607H28.44H28.4192H28.3985H28.3778H28.357H28.3363H28.3156H28.2948H28.2741H28.2534H28.2326H28.2119H28.1912H28.1704H28.1497H28.129H28.1082H28.0875H28.0668H28.046H28.0253H28.0046H27.9838H27.9631H27.9424H27.9216H27.9009H27.8802H27.8594H27.8387H27.818H27.7972H27.7765H27.7558H27.7351H27.7143H27.6936H27.6729H27.6521H27.6314H27.6107H27.5899H27.5692H27.5485H27.5277H27.507H27.4863H27.4655H27.4448H27.4241H27.4033H27.3826H27.3619H27.3411H27.3204H27.2997H27.2789H27.2582H27.2375H27.2167H27.196H27.1753H27.1545H27.1338H27.1131H27.0923H27.0716H27.0509H27.0301H27.0094H26.9887H26.9679H26.9472H26.9265H26.9057H26.885H26.8643H26.8435H26.8228H26.8021H26.7813H26.7606H26.7399H26.7191H26.6984H26.6777H26.6569H26.6362H26.6155H26.5947H26.574H26.5533H26.5325H26.5118H26.4911H26.4703H26.4496H26.4289H26.4081H26.3874H26.3667H26.3459H26.3252H26.3045H26.2837H26.263H26.2423H26.2215H26.2008H26.1801H26.1594H26.1386H26.1179H26.0972H26.0764H26.0557H26.035H26.0142H25.9935H25.9728H25.952H25.9313H25.9106H25.8898H25.8691H25.8484H25.8276H25.8069H25.7862H25.7654H25.7447H25.724H25.7032H25.6825H25.6618H25.641H25.6203H25.5996H25.5788H25.5581H25.5374H25.5166H25.4959H25.4752H25.4544H25.4337H25.413H25.3922H25.3715H25.3508H25.33H25.3093H25.2886H25.2678H25.2471H25.2264H25.2056H25.1849H25.1642H25.1434H25.1227H25.102H25.0812H25.0605H25.0398H25.019H24.9983H24.9776H24.9568H24.9361H24.9154H24.8946H24.8739H24.8532H24.8324H24.8117H24.791H24.7702H24.7495H24.7288H24.708H24.6873H24.6666H24.6458H24.6251H24.6044H24.5836H24.5629H24.5422H24.5214H24.5007H24.4799H24.4592H24.4385H24.4177H24.397H24.3763H24.3555H24.3348H24.3141H24.2933H24.2726H24.2519H24.2311H24.2104H24.1897H24.1689H24.1482H24.1275H24.1067H24.086H24.0653H24.0445H24.0238H24.0031H23.9823H23.9616H23.9409H23.9201H23.8994H23.8787H23.8579H23.8372H23.8165H23.7957H23.775H23.7543H23.7335H23.7128H23.6921H23.6713H23.6506H23.6299H23.6091H23.5884H23.5677H23.5469H23.5262H23.5055H23.4847H23.464H23.4433H23.4225H23.4018H23.3811H23.3603H23.3396H23.3189H23.2981H23.2774H23.2567H23.2359H23.2152H23.1945H23.1737H23.153H23.1323H23.1115H23.0908H23.0701H23.0493H23.0286H23.0079H22.9871H22.9664H22.9457H22.9249H22.9042H22.8834H22.8627H22.842H22.8212H22.8005H22.7798H22.759H22.7383H22.7176H22.6968H22.6761H22.6554H22.6346H22.6139H22.5932H22.5724H22.5517H22.531H22.5102H22.4895H22.4688H22.448H22.4273H22.4066H22.3858H22.3651H22.3444H22.3236H22.3029H22.2822H22.2614H22.2407H22.22H22.1992H22.1785H22.1578H22.137H22.1163H22.0956H22.0748H22.0541H22.0333H22.0126H21.9919H21.9711H21.9504H21.9297H21.9089H21.8882H21.8675H21.8467H21.826H21.8053H21.7845H21.7638H21.7431H21.7223H21.7016H21.6809H21.6601H21.6394H21.6187H21.5979H21.5772H21.5565H21.5357H21.515H21.4943H21.4735H21.4528H21.4321H21.4113H21.3906H21.3699H21.3491H21.3284H21.3076H21.2869H21.2662H21.2454H21.2247H21.204H21.1832H21.1625H21.1418H21.121H21.1003H21.0796H21.0588H21.0381H21.0174H20.9966H20.9759H20.9552H20.9344H20.9137H20.893H20.8722H20.8515H20.8308H20.81H20.7893H20.7685H20.7478H20.7271H20.7063H20.6856H20.6649H20.6441H20.6234H20.6027H20.5819H20.5612H20.5405H20.5197H20.499H20.4783H20.4575H20.4368H20.4161H20.3953H20.3746H20.3539H20.3331H20.3124H20.2917H20.2709H20.2502H20.2294H20.2087H20.188H20.1672H20.1465H20.1258H20.105H20.0843H20.0636H20.0428H20.0221H20.0014H19.9806H19.9599H19.9392H19.9184H19.8977H19.877H19.8562H19.8355H19.8148H19.794H19.7733H19.7525H19.7318H19.7111H19.6903H19.6696H19.6489H19.6281H19.6074H19.5867H19.5659H19.5452H19.5245H19.5037H19.483H19.4623H19.4415H19.4208H19.4001H19.3793H19.3586H19.3378H19.3171H19.2964H19.2756H19.2549H19.2342H19.2134H19.1927H19.172H19.1512H19.1305H19.1098H19.089H19.0683H19.0476H19.0268H19.0061H18.9854H18.9646H18.9439H18.9231H18.9024H18.8817H18.8609H18.8402H18.8195H18.7987H18.778H18.7573H18.7365H18.7158H18.6951C17.1907 34.6674 16.0226 33.4875 16.0226 31.9564C16.0226 31.5311 16.0231 31.1058 16.0236 30.6804C16.0253 29.3328 16.0269 27.9846 16.0122 26.6373L16.0122 26.6364C16.0005 26.3818 15.918 26.1358 15.7744 25.9269L15.7743 25.9268C15.5536 25.6096 15.1439 25.5359 14.7913 25.6687C14.6106 25.7351 14.4555 25.8584 14.3482 26.0205C14.2411 26.1826 14.1874 26.375 14.1948 26.5701V26.5803V26.5909V26.6015V26.6121V26.6227V26.6333V26.6439V26.6545V26.6651V26.6758V26.6864V26.697V26.7076V26.7182V26.7288V26.7394V26.75V26.7606V26.7713V26.7819V26.7925V26.8031V26.8137V26.8243V26.8349V26.8455V26.8561V26.8668V26.8774V26.888V26.8986V26.9092V26.9198V26.9304V26.941V26.9516V26.9622V26.9729V26.9835V26.9941V27.0047V27.0153V27.0259V27.0365V27.0471V27.0577V27.0684V27.079V27.0896V27.1002V27.1108V27.1214V27.132V27.1426V27.1532V27.1639V27.1745V27.1851V27.1957V27.2063V27.2169V27.2275V27.2381V27.2487V27.2594V27.27V27.2806V27.2912V27.3018V27.3124V27.323V27.3336V27.3442V27.3549V27.3655V27.3761V27.3867V27.3973V27.4079V27.4185V27.4291V27.4397V27.4503V27.461V27.4716V27.4822V27.4928V27.5034V27.514V27.5246V27.5352V27.5458V27.5565V27.5671V27.5777V27.5883V27.5989V27.6095V27.6201V27.6307V27.6413V27.652V27.6626V27.6732V27.6838V27.6944V27.705V27.7156V27.7262V27.7368V27.7475V27.7581V27.7687V27.7793V27.7899V27.8005V27.8111V27.8217V27.8323V27.843V27.8536V27.8642V27.8748V27.8854V27.896V27.9066V27.9172V27.9278V27.9384V27.9491V27.9597V27.9703V27.9809V27.9915V28.0021V28.0127V28.0233V28.0339V28.0446V28.0552V28.0658V28.0764V28.087V28.0976V28.1082V28.1188V28.1294V28.1401V28.1507V28.1613V28.1719V28.1825V28.1931V28.2037V28.2143V28.2249V28.2356V28.2462V28.2568V28.2674V28.278V28.2886V28.2992V28.3098V28.3204V28.3311V28.3417V28.3523V28.3629V28.3735V28.3841V28.3947V28.4053V28.4159V28.4266V28.4372V28.4478V28.4584V28.469V28.4796V28.4902V28.5008V28.5114V28.522V28.5327V28.5433V28.5539V28.5645V28.5751V28.5857V28.5963V28.6069V28.6175V28.6282V28.6388V28.6494V28.66V28.6706V28.6812V28.6918V28.7024V28.713V28.7237V28.7343V28.7449V28.7555V28.7661V28.7767V28.7873V28.7979V28.8085V28.8192V28.8298V28.8404V28.851V28.8616V28.8722V28.8828V28.8934V28.904V28.9147V28.9253V28.9359V28.9465V28.9571V28.9677V28.9783V28.9889V28.9995V29.0101V29.0208V29.0314V29.042V29.0526V29.0632V29.0738V29.0844V29.095V29.1056V29.1163V29.1269V29.1375V29.1481V29.1587V29.1693V29.1799V29.1905V29.2011V29.2118V29.2224V29.233V29.2436V29.2542V29.2648V29.2754V29.286V29.2966V29.3073V29.3179V29.3285V29.3391V29.3497V29.3603V29.3709V29.3815V29.3921V29.4028V29.4134V29.424V29.4346V29.4452V29.4558V29.4664V29.477V29.4876V29.4983V29.5089V29.5195V29.5301V29.5407V29.5513V29.5619V29.5725V29.5831V29.5937V29.6044V29.615V29.6256V29.6362V29.6468V29.6574V29.668V29.6786V29.6892V29.6999V29.7105V29.7211V29.7317V29.7423V29.7529V29.7635V29.7741V29.7847V29.7954V29.806V29.8166V29.8272V29.8378V29.8484V29.859V29.8696V29.8802V29.8909V29.9015V29.9121V29.9227V29.9333V29.9439V29.9545V29.9651V29.9757V29.9864V29.997V30.0076V30.0182V30.0288V30.0394V30.05V30.0606V30.0712V30.0819V30.0925V30.1031V30.1137V30.1243V30.1349V30.1455V30.1561V30.1667V30.1773V30.188V30.1986V30.2092V30.2198V30.2304V30.241V30.2516V30.2622V30.2728V30.2835V30.2941V30.3047V30.3153V30.3259V30.3365V30.3471V30.3577V30.3683V30.379V30.3896V30.4002V30.4108V30.4214V30.432V30.4426V30.4532V30.4638V30.4745V30.4851V30.4957V30.5063V30.5169V30.5275V30.5381V30.5487V30.5593V30.57V30.5806V30.5912V30.6018V30.6124V30.623V30.6336V30.6442L14.1948 32.0024L14.1948 32.0025C14.1999 33.2014 14.6701 34.3498 15.5031 35.1974C16.3361 36.045 17.4645 36.5232 18.6424 36.5276ZM23.7847 13.9442C23.8504 13.8665 23.9111 13.7847 23.9664 13.6992C24.0367 13.7685 24.0835 13.8114 24.1227 13.8474C24.1408 13.864 24.1573 13.8791 24.1737 13.8946C24.1738 13.8947 24.1739 13.8948 24.174 13.8949L31.5496 21.3726L31.5497 21.3727C32.667 22.5035 33.7829 23.6372 34.8974 24.7736C35.0305 24.91 35.1737 25.0125 35.3321 25.0675C35.4909 25.1226 35.6635 25.1294 35.8541 25.0765L35.8541 25.0765C36.2186 24.9744 36.4456 24.7105 36.5091 24.3987C36.5725 24.0874 36.4723 23.731 36.1888 23.4433L36.171 23.4608L36.1888 23.4433C32.3818 19.5841 28.574 15.7258 24.7655 11.8681C24.5069 11.6049 24.2566 11.4706 24.0024 11.4721C23.7484 11.4736 23.4974 11.6107 23.2375 11.8741L11.8521 23.4071L11.8688 23.4236L11.8521 23.4071C11.8412 23.4181 11.8302 23.4291 11.8191 23.4402C11.7771 23.4823 11.7342 23.5252 11.6953 23.5713C11.5945 23.6887 11.5245 23.8299 11.4919 23.9819C11.4593 24.134 11.4651 24.292 11.5088 24.4412C11.5525 24.5903 11.6326 24.726 11.7419 24.8355C11.8511 24.9449 11.9858 25.0247 12.1336 25.0673C12.3419 25.1307 12.5261 25.1186 12.6945 25.0534C12.8622 24.9883 13.0128 24.871 13.1553 24.7261C16.699 21.1339 20.2417 17.5404 23.7834 13.9456L23.7835 13.9457L23.7847 13.9442Z" fill="#4F5864" stroke="#4F5864" stroke-width="0.05"/>
</svg>
