<svg width="48" height="48" viewBox="0 0 48 48" fill="none" xmlns="http://www.w3.org/2000/svg">
<rect width="48" height="48" rx="12" fill="white"/>
<path d="M33.6 23.0136V15.5974C33.6 13.6137 31.9852 12 30 12H18C16.0148 12 14.4 13.6137 14.4 15.5974V23.0136C13.0061 23.5101 12 24.8287 12 26.3897V34.7837C12 35.4465 12.334 36 12.9967 36C13.6594 36 13.9556 35.4465 13.9556 34.7837V32.4711H34.0439V34.7837C34.0439 35.4465 34.3579 35.9591 35.0206 35.9591C35.6833 35.9591 36 35.4465 36 34.7837V26.3897C36 24.8287 34.9939 23.5101 33.6 23.0136ZM17.8361 13.8967H30.1679C31.0419 13.8967 31.7925 14.7772 31.7925 15.5974V22.7923H16.2655V15.5974C16.2655 14.7747 17.0638 13.8967 17.8361 13.8967ZM13.9556 30.5962V26.3897C13.9556 25.7281 14.925 24.8059 15.5866 24.8059H32.4092C33.0707 24.8059 34.0439 25.7281 34.0439 26.3897V30.5962H13.9556Z" fill="#4F5864"/>
</svg>
