<svg width="48" height="48" viewBox="0 0 48 48" fill="none" xmlns="http://www.w3.org/2000/svg">
<rect width="48" height="48" rx="12" fill="white"/>
<path d="M21.4929 26.432H21.4179V26.507V29.73C21.4179 30.2816 20.9701 30.7293 20.4185 30.7293C19.8669 30.7293 19.4192 30.2816 19.4192 29.73V18.2703C19.4192 17.7187 19.8669 17.271 20.4185 17.271V17.196L20.4186 17.271H20.4186H20.4188H20.419H20.4193H20.4196H20.42H20.4205H20.421H20.4215H20.4222H20.4229H20.4236H20.4244H20.4253H20.4262H20.4272H20.4282H20.4293H20.4305H20.4317H20.433H20.4343H20.4357H20.4372H20.4387H20.4402H20.4419H20.4435H20.4453H20.4471H20.4489H20.4508H20.4528H20.4548H20.4569H20.459H20.4612H20.4634H20.4657H20.4681H20.4705H20.4729H20.4755H20.478H20.4807H20.4833H20.4861H20.4889H20.4917H20.4946H20.4976H20.5006H20.5036H20.5068H20.5099H20.5131H20.5164H20.5198H20.5231H20.5266H20.5301H20.5336H20.5372H20.5408H20.5445H20.5483H20.5521H20.5559H20.5598H20.5638H20.5678H20.5719H20.576H20.5801H20.5843H20.5886H20.5929H20.5973H20.6017H20.6061H20.6107H20.6152H20.6198H20.6245H20.6292H20.634H20.6388H20.6436H20.6486H20.6535H20.6585H20.6636H20.6687H20.6738H20.679H20.6843H20.6896H20.6949H20.7003H20.7058H20.7112H20.7168H20.7224H20.728H20.7337H20.7394H20.7452H20.751H20.7568H20.7627H20.7687H20.7747H20.7807H20.7868H20.793H20.7992H20.8054H20.8117H20.818H20.8243H20.8307H20.8372H20.8437H20.8502H20.8568H20.8635H20.8701H20.8768H20.8836H20.8904H20.8973H20.9042H20.9111H20.9181H20.9251H20.9322H20.9393H20.9464H20.9536H20.9608H20.9681H20.9754H20.9828H20.9902H20.9976H21.0051H21.0127H21.0202H21.0278H21.0355H21.0432H21.0509H21.0587H21.0665H21.0743H21.0822H21.0902H21.0981H21.1062H21.1142H21.1223H21.1304H21.1386H21.1468H21.1551H21.1633H21.1717H21.18H21.1884H21.1969H21.2054H21.2139H21.2224H21.231H21.2397H21.2483H21.257H21.2658H21.2746H21.2834H21.2922H21.3011H21.3101H21.319H21.328H21.3371H21.3461H21.3552H21.3644H21.3736H21.3828H21.392H21.4013H21.4107H21.42H21.4294H21.4388H21.4483H21.4578H21.4673H21.4769H21.4865H21.4961H21.5058H21.5155H21.5252H21.535H21.5448H21.5546H21.5645H21.5744H21.5843H21.5943H21.6043H21.6143H21.6244H21.6345H21.6446H21.6548H21.665H21.6752H21.6854H21.6957H21.706H21.7164H21.7268H21.7372H21.7476H21.7581H21.7686H21.7791H21.7897H21.8003H21.8109H21.8215H21.8322H21.8429H21.8537H21.8644H21.8752H21.8861H21.8969H21.9078H21.9187H21.9297H21.9406H21.9516H21.9626H21.9737H21.9848H21.9959H22.007H22.0182H22.0294H22.0406H22.0519H22.0631H22.0744H22.0857H22.0971H22.1085H22.1199H22.1313H22.1428H22.1543H22.1658H22.1773H22.1889H22.2004H22.2121H22.2237H22.2353H22.247H22.2587H22.2705H22.2822H22.294H22.3058H22.3177H22.3295H22.3414H22.3533H22.3652H22.3772H22.3891H22.4011H22.4131H22.4252H22.4372H22.4493H22.4614H22.4736H22.4857H22.4979H22.5101H22.5223H22.5345H22.5468H22.5591H22.5714H22.5837H22.5961H22.6084H22.6208H22.6332H22.6457H22.6581H22.6706H22.6831H22.6956H22.7081H22.7206H22.7332H22.7458H22.7584H22.771H22.7837H22.7963H22.809H22.8217H22.8344H22.8472H22.8599H22.8727H22.8855H22.8983H22.9111H22.924H22.9368H22.9497H22.9626H22.9755H22.9884H23.0014H23.0143H23.0273H23.0403H23.0533H23.0664H23.0794H23.0925H23.1055H23.1186H23.1317H23.1448H23.158H23.1711H23.1843H23.1975H23.2107H23.2239H23.2371H23.2503H23.2636H23.2769H23.2901H23.3034H23.3167H23.3301H23.3434H23.3567H23.3701H23.3835H23.3969H23.4103H23.4237H23.4371H23.4505H23.464H23.4774H23.4909H23.5044H23.5179H23.5314H23.5449H23.5584H23.572H23.5855H23.5991H23.6127H23.6262H23.6398H23.6534H23.6671H23.6807H23.6943H23.708H23.7216H23.7353H23.7489H23.7626H23.7763H23.79H23.8037H23.8174H23.8312H23.8449H23.8586H23.8724H23.8861H23.8999H23.9137H23.9275H23.9412H23.955H23.9688H23.9826H23.9965H24.0103H24.0241H24.038H24.0518H24.0656H24.0795H24.0934H24.1072H24.1211H24.135H24.1489H24.1628H24.1767H24.1906H24.2045H24.2184H24.2323H24.2462H24.2601H24.2741H24.288H24.3019H24.3159H24.3298H24.3438H24.3577H24.3717H24.3856H24.3996H24.4135H24.4275H24.4415H24.4555H24.4694H24.4834H24.4974H24.5114H24.5253H24.5393H24.5533H24.5673H24.5813H24.5953H24.6093H24.6233H24.6373H24.6513H24.6653H24.6793H24.6933H24.7072H24.7212H24.7352H24.7492H24.7632H24.7772H24.7912H24.8052H24.8192H24.8332H24.8472H24.8612H24.8752H24.8892H24.9032H24.9171H24.9311H24.9451H24.9591H24.9731H24.987H25.001H25.015H25.0289H25.0429H25.0569H25.0708H25.0848H25.0987H25.1127H25.1266H25.1405H25.1545H25.1684H25.1823H25.1963H25.2102H25.2241H25.238H25.2519H25.2658H25.2797H25.2936H25.3075H25.3213H25.3352H25.3491H25.3629H25.3768H25.3906H25.4045H25.4183H25.4321C26.6471 17.271 27.8126 17.753 28.6708 18.6127L28.6709 18.6128C29.5306 19.471 30.0126 20.6365 30.0126 21.8515C30.0126 23.0664 29.5306 24.2319 28.6709 25.0902L28.6708 25.0903C27.8126 25.9499 26.6471 26.432 25.4321 26.432H21.4929ZM21.4179 24.3583V24.4333H21.4929H25.4321C26.1166 24.4333 26.7731 24.1619 27.257 23.6765C27.7425 23.1926 28.0139 22.536 28.0139 21.8515C28.0139 21.167 27.7425 20.5104 27.2571 20.0265C26.7732 19.5411 26.1166 19.2697 25.4321 19.2697H21.4929H21.4179V19.3447V24.3583ZM10.1082 24.0002C10.1082 16.3335 16.333 10.1087 23.9997 10.1087C31.6663 10.1087 37.8911 16.3335 37.8911 24.0002C37.8911 31.6668 31.6663 37.8916 23.9997 37.8916C16.333 37.8916 10.1082 31.6668 10.1082 24.0002ZM35.8924 24.0002C35.8924 17.4368 30.5631 12.1074 23.9997 12.1074C17.4363 12.1074 12.1069 17.4368 12.1069 24.0002C12.1069 30.5636 17.4363 35.8929 23.9997 35.8929C30.5631 35.8929 35.8924 30.5636 35.8924 24.0002Z" fill="#4F5864" stroke="white" stroke-width="0.15"/>
</svg>
