<svg width="48" height="48" viewBox="0 0 48 48" fill="none" xmlns="http://www.w3.org/2000/svg">
<rect width="48" height="48" rx="12" fill="white"/>
<path d="M36.1808 21.9066C36.1808 20.8416 35.7972 19.3461 33.9702 18.2675C32.5518 17.4304 30.4942 17.0059 27.8543 17.0059C27.5904 17.0059 27.4333 16.9303 27.3935 16.8954C27.393 16.8911 27.3926 16.8851 27.3926 16.8771C27.3926 16.735 27.4389 16.6625 27.8623 16.3291C28.3581 15.9386 29.1075 15.3485 29.1075 14.1674C29.1075 13.5191 28.8518 12.6538 27.6335 12.2118C26.8858 11.9408 25.7654 11.8198 24.0006 11.8198C20.6615 11.8198 17.5426 12.964 15.2185 15.0416C14.1716 15.9774 13.3092 17.0933 12.7243 18.2688C12.1329 19.4576 11.8203 20.7154 11.8203 21.9066C11.8203 24.9704 12.1917 26.5376 12.3437 27.0505V30.9466C12.3437 32.1854 13.2583 33.5191 14.8529 34.6056C16.3 35.5917 18.0301 36.1803 19.4805 36.1803C20.7919 36.1803 21.7818 34.9487 22.7392 33.7575C23.1042 33.3035 23.6987 32.5638 24.0006 32.3941C24.3024 32.5638 24.8969 33.3035 25.262 33.7575C26.2193 34.9487 27.2092 36.1803 28.5206 36.1803C29.971 36.1803 31.7011 35.5917 33.1482 34.6056C34.7428 33.5191 35.6574 32.1854 35.6574 30.9466V27.0505C35.8095 26.5376 36.1808 24.9704 36.1808 21.9066ZM24.0557 13.5776C25.1725 13.5776 25.9499 13.6517 26.5174 13.7561C27.011 13.847 27.1618 14.0769 27.2008 14.1081C27.2025 14.1194 27.2043 14.1386 27.2043 14.1674C27.2043 14.3887 27.2083 14.5404 26.7617 14.8922C26.2857 15.2671 25.6378 15.9612 25.6378 16.8954C25.6378 17.9158 26.47 18.7125 27.8623 18.7125C31.9446 18.7125 34.5924 19.9691 34.5924 21.8739C34.5924 22.5156 34.5087 23.3897 34.4802 23.8894C33.8387 23.2763 32.7678 22.5705 31.8377 22.4078C29.785 22.049 26.759 21.6211 24.0006 21.6211C21.2421 21.6211 18.2162 22.049 16.1634 22.4078C15.2334 22.5705 14.343 23.2186 13.7014 23.8317C13.673 23.3319 13.628 22.5484 13.628 21.9066C13.628 18.0358 17.9992 13.5776 24.0557 13.5776ZM33.9702 31.139C33.9702 31.6085 33.2397 32.5433 32.0807 33.333C30.9542 34.1006 29.5876 34.533 28.5206 34.533C28.5005 34.533 28.2527 34.2868 27.8306 33.8948C27.4598 33.5506 27.0142 33.1029 26.6332 32.6288C25.7674 31.5517 25.062 30.6291 24.0006 30.6291C22.9391 30.6291 22.0985 31.6831 21.2327 32.7601C20.8517 33.2342 20.6196 33.5506 20.2488 33.8948C19.8267 34.2868 19.5006 34.6056 19.4805 34.6056C18.4135 34.6056 17.0026 33.9656 15.8761 33.198C14.7171 32.4083 14.0921 31.4161 14.0921 30.9466V26.9561C14.0921 25.6343 15.2089 24.4417 16.5093 24.2144C17.1955 24.0943 18.0157 23.9477 18.8749 23.8317L21.8667 23.5286C22.592 23.478 23.2932 23.4606 24.0006 23.4606C24.1524 23.4606 24.3224 23.4578 24.4759 23.4606L27.0038 23.6165C28.6706 23.7678 30.3011 23.9981 31.5379 24.2144C32.8384 24.4417 33.9702 25.6343 33.9702 26.9561V31.139Z" fill="#4F5864"/>
</svg>
