<svg width="48" height="48" viewBox="0 0 48 48" fill="none" xmlns="http://www.w3.org/2000/svg">
<rect width="48" height="48" rx="12" fill="white"/>
<path d="M37.4761 29.8288H36.3816C35.8446 24.0063 30.9248 19.1423 24.9597 18.6141V16.4938H26.1737C26.8033 16.4938 27.3493 16.1206 27.3493 15.5036C27.3493 14.8867 26.8033 14.5713 26.1737 14.5713L21.842 14.5713C21.2124 14.5713 20.6568 14.8867 20.6568 15.5036C20.6568 16.1206 21.2124 16.4938 21.842 16.4938H22.9987V18.6141C17.0566 19.1403 12.1469 23.9838 11.6079 29.8288H10.5567C9.92708 29.8288 9.42773 30.1168 9.42773 30.7338C9.42773 31.3507 9.92708 31.5713 10.5567 31.5713H37.459C38.0886 31.5713 38.5706 31.3139 38.5706 30.697C38.5706 30.08 38.1058 29.8288 37.4761 29.8288ZM13.546 29.8288C14.114 24.8709 18.2481 20.2056 23.9949 20.1826C29.7672 20.1595 33.9365 24.8709 34.5044 29.8288H13.546Z" fill="#4F5864"/>
</svg>
