<svg width="12" height="18" viewBox="0 0 12 18" fill="none" xmlns="http://www.w3.org/2000/svg">
<mask id="path-1-inside-1_123_46" fill="white">
<path d="M11.0116 9.0058C11.0116 9.21211 10.9327 9.41862 10.7752 9.57613L2.70822 17.6431C2.393 17.9583 1.66355 17.8328 1.34853 17.5176C1.03352 17.2023 0.8512 16.4362 1.16642 16.1212L8.44379 9.0058L1.16642 1.8098C0.851203 1.49458 0.990329 0.777952 1.30555 0.462937C1.62076 0.147921 2.3932 0.0532498 2.70822 0.368467L10.7752 8.43546C10.9327 8.59297 11.0116 8.79948 11.0116 9.0058Z"/>
</mask>
<path d="M11.0116 9.0058C11.0116 9.21211 10.9327 9.41862 10.7752 9.57613L2.70822 17.6431C2.393 17.9583 1.66355 17.8328 1.34853 17.5176C1.03352 17.2023 0.8512 16.4362 1.16642 16.1212L8.44379 9.0058L1.16642 1.8098C0.851203 1.49458 0.990329 0.777952 1.30555 0.462937C1.62076 0.147921 2.3932 0.0532498 2.70822 0.368467L10.7752 8.43546C10.9327 8.59297 11.0116 8.79948 11.0116 9.0058Z" fill="#4F5864"/>
<path d="M10.7752 9.57613L13.6036 12.4046L13.6036 12.4046L10.7752 9.57613ZM2.70822 17.6431L-0.120209 14.8147L-0.120209 14.8147L2.70822 17.6431ZM1.16642 16.1212L-1.63 13.2611L-1.64564 13.2764L-1.6611 13.2918L1.16642 16.1212ZM8.44379 9.0058L11.2402 11.8659L14.149 9.02186L11.2563 6.16151L8.44379 9.0058ZM1.16642 1.8098L-1.66201 4.63823L-1.65406 4.64618L-1.64606 4.65408L1.16642 1.8098ZM2.70822 0.368468L-0.121112 3.19599L-0.120208 3.19689L2.70822 0.368468ZM10.7752 8.43546L7.94678 11.2639L7.94678 11.2639L10.7752 8.43546ZM7.01157 9.0058C7.01157 8.19337 7.32487 7.36961 7.94678 6.7477L13.6036 12.4046C14.5406 11.4676 15.0116 10.2309 15.0116 9.0058L7.01157 9.0058ZM7.94678 6.7477L-0.120209 14.8147L5.53665 20.4715L13.6036 12.4046L7.94678 6.7477ZM-0.120209 14.8147C0.447756 14.2467 1.07133 14.0057 1.49242 13.9068C1.91312 13.808 2.26351 13.8162 2.50566 13.8453C2.88328 13.8907 3.54342 14.0552 4.17786 14.69L-1.4808 20.3451C-0.531344 21.2952 0.651036 21.68 1.55094 21.7882C2.36729 21.8863 4.12817 21.88 5.53665 20.4715L-0.120209 14.8147ZM4.17786 14.69C4.50866 15.021 4.68181 15.3352 4.768 15.52C4.86226 15.7222 4.92799 15.9319 4.96552 16.1546C5.00105 16.3654 5.03237 16.7133 4.95132 17.153C4.87034 17.5924 4.63817 18.3067 3.99394 18.9505L-1.6611 13.2918C-3.20629 14.836 -3.04196 16.7796 -2.92325 17.484C-2.77879 18.3412 -2.37266 19.4527 -1.4808 20.3451L4.17786 14.69ZM3.96283 18.9813L11.2402 11.8659L5.64738 6.14572L-1.63 13.2611L3.96283 18.9813ZM11.2563 6.16151L3.9789 -1.03448L-1.64606 4.65408L5.63131 11.8501L11.2563 6.16151ZM3.99485 -1.01863C5.10746 0.0939909 5.00536 1.36186 4.96369 1.67084C4.91032 2.06661 4.73332 2.6924 4.13307 3.29227L-1.52198 -2.3664C-2.43745 -1.45151 -2.84162 -0.309893 -2.96455 0.601749C-3.07578 1.4266 -3.08984 3.21039 -1.66201 4.63823L3.99485 -1.01863ZM4.13307 3.29227C3.7285 3.69657 3.32673 3.89455 3.08796 3.98924C2.83017 4.09147 2.58429 4.14426 2.35348 4.16433C2.12861 4.18388 1.80952 4.18169 1.42675 4.08562C1.05509 3.99234 0.445513 3.76298 -0.121112 3.19599L5.53755 -2.45905C4.16218 -3.8353 2.43641 -3.87307 1.66044 -3.8056C0.807647 -3.73144 -0.483585 -3.40412 -1.52198 -2.3664L4.13307 3.29227ZM-0.120208 3.19689L7.94678 11.2639L13.6036 5.60703L5.53665 -2.45996L-0.120208 3.19689ZM7.94678 11.2639C7.32486 10.642 7.01157 9.81822 7.01157 9.0058L15.0116 9.0058C15.0116 7.78075 14.5406 6.54396 13.6036 5.60703L7.94678 11.2639Z" fill="#4F5864" mask="url(#path-1-inside-1_123_46)"/>
</svg>
