<svg width="48" height="48" viewBox="0 0 48 48" fill="none" xmlns="http://www.w3.org/2000/svg">
<rect width="48" height="48" rx="12" fill="white"/>
<path d="M9.63498 20.39L9.63499 20.39L14.535 22.6712C14.5349 24.9373 14.5333 26.6351 14.532 27.9089C14.5306 29.3609 14.5297 30.262 14.5324 30.8258C14.5349 31.3551 14.5406 31.5914 14.5526 31.7074C14.5586 31.7659 14.5668 31.8024 14.5819 31.8326C14.5885 31.8459 14.5958 31.8566 14.6006 31.8637L14.6018 31.8654C14.6067 31.8726 14.6105 31.8783 14.6147 31.8865C14.6658 31.9857 15.1076 32.7768 16.5397 33.5189C18.3367 34.4502 20.8751 34.919 24.078 34.919C31.1214 34.919 33.3647 32.1348 33.4701 31.9983L33.4108 31.9525L33.4701 31.9983C33.4806 31.9847 33.4898 31.9745 33.501 31.9615C33.5117 31.949 33.524 31.9343 33.5356 31.916C33.5597 31.8776 33.5757 31.8315 33.5875 31.7602C33.6105 31.6219 33.6212 31.3629 33.626 30.8185C33.6311 30.2378 33.6294 29.3248 33.6266 27.8724C33.6242 26.5993 33.6211 24.9117 33.621 22.6702L33.6299 22.6658L33.7744 22.5952L34.2928 22.3415C34.7234 22.1306 35.3015 21.8469 35.8913 21.5559C36.481 21.2649 37.0825 20.9665 37.56 20.7264C38.0352 20.4874 38.3927 20.3035 38.4898 20.2429C38.7353 20.0898 38.816 19.8576 38.7857 19.643C38.7561 19.4337 38.6206 19.2398 38.4351 19.1554C37.2496 18.6153 36.884 18.4338 36.5145 18.2605C35.6776 17.868 34.8209 17.5177 24.3748 13.1407C24.1854 13.0612 23.9707 13.0612 23.7812 13.1407L9.66211 19.0567C9.07203 19.3039 9.05129 20.1181 9.63498 20.39ZM16.0376 31.3299V23.3707L23.7541 26.9632L23.7541 26.9632C23.959 27.0585 24.197 27.0585 24.4018 26.9632L24.4018 26.9632L32.1184 23.3707L32.1184 31.2694C31.2853 32.0441 30.0109 32.6042 28.5238 32.965C27.0241 33.3289 25.3154 33.4883 23.6418 33.4641C21.9681 33.4399 20.3323 33.232 18.9783 32.8631C17.6351 32.4971 16.5821 31.9759 16.0376 31.3299ZM36.3788 19.7643L24.078 25.491L11.7772 19.7643L24.078 14.6102L36.3788 19.7643Z" fill="#4F5864" stroke="#4F5864" stroke-width="0.15"/>
</svg>
