<svg width="22" height="22" viewBox="0 0 22 22" fill="none" xmlns="http://www.w3.org/2000/svg">
<rect width="22" height="22" rx="11" fill="#E53D18"/>
<path d="M10.9969 16.6392C10.2843 16.6392 9.65456 16.5166 9.10769 16.2713C8.56413 16.026 8.13823 15.688 7.82999 15.2571C7.52175 14.8262 7.36929 14.3357 7.3726 13.7855C7.36929 13.3546 7.45712 12.9586 7.6361 12.5973C7.81839 12.2327 8.06531 11.9295 8.37686 11.6875C8.68842 11.4422 9.03643 11.2865 9.4209 11.2202V11.1605C8.9138 11.0379 8.50778 10.7661 8.20286 10.3452C7.89793 9.92424 7.74713 9.44034 7.75044 8.89347C7.74713 8.37311 7.88468 7.90909 8.16309 7.50142C8.44481 7.09044 8.83094 6.76728 9.32147 6.53196C9.812 6.29664 10.3705 6.17898 10.9969 6.17898C11.6167 6.17898 12.1702 6.2983 12.6574 6.53693C13.1479 6.77225 13.5341 7.09541 13.8158 7.50639C14.0975 7.91406 14.24 8.37642 14.2433 8.89347C14.24 9.44034 14.0843 9.92424 13.776 10.3452C13.4678 10.7661 13.0667 11.0379 12.5729 11.1605V11.2202C12.954 11.2865 13.2971 11.4422 13.602 11.6875C13.9102 11.9295 14.1555 12.2327 14.3378 12.5973C14.5234 12.9586 14.6179 13.3546 14.6212 13.7855C14.6179 14.3357 14.4621 14.8262 14.1539 15.2571C13.8456 15.688 13.4181 16.026 12.8712 16.2713C12.3276 16.5166 11.7029 16.6392 10.9969 16.6392ZM10.9969 15.3814C11.4178 15.3814 11.7824 15.3118 12.0906 15.1726C12.3989 15.0301 12.6375 14.8329 12.8066 14.581C12.9756 14.3258 13.0618 14.0275 13.0651 13.6861C13.0618 13.3314 12.969 13.0182 12.7867 12.7464C12.6077 12.4747 12.3641 12.2609 12.0558 12.1051C11.7476 11.9493 11.3946 11.8714 10.9969 11.8714C10.5959 11.8714 10.2396 11.9493 9.928 12.1051C9.61645 12.2609 9.37118 12.4747 9.19221 12.7464C9.01323 13.0182 8.9254 13.3314 8.92871 13.6861C8.9254 14.0275 9.0066 14.3258 9.17232 14.581C9.34135 14.8329 9.58165 15.0301 9.8932 15.1726C10.2048 15.3118 10.5727 15.3814 10.9969 15.3814ZM10.9969 10.6435C11.335 10.6435 11.6349 10.5755 11.8968 10.4396C12.1586 10.3037 12.3641 10.1148 12.5132 9.87287C12.6657 9.63092 12.7436 9.34754 12.7469 9.02273C12.7436 8.70455 12.6673 8.42614 12.5182 8.1875C12.3724 7.94886 12.1685 7.76491 11.9067 7.63565C11.6449 7.50308 11.3416 7.43679 10.9969 7.43679C10.6456 7.43679 10.3373 7.50308 10.0722 7.63565C9.81034 7.76491 9.6065 7.94886 9.46067 8.1875C9.31484 8.42614 9.24358 8.70455 9.24689 9.02273C9.24358 9.34754 9.3165 9.63092 9.46564 9.87287C9.61479 10.1148 9.82028 10.3037 10.0821 10.4396C10.3473 10.5755 10.6522 10.6435 10.9969 10.6435Z" fill="white"/>
</svg>
