<svg width="28" height="21" viewBox="0 0 28 21" fill="none" xmlns="http://www.w3.org/2000/svg">
<path d="M22.5102 7.10156C22.4763 7.10156 22.4423 7.10219 22.4086 7.10281C22.4744 6.83217 22.5102 6.54988 22.5102 6.25905C22.5102 4.29673 20.9195 2.70601 18.9571 2.70601C18.1854 2.70601 17.4716 2.95291 16.8889 3.37094C15.6756 1.53228 13.5917 0.318787 11.2238 0.318787C7.478 0.318787 4.44125 3.35554 4.44125 7.10156C4.44125 7.12446 4.44187 7.14736 4.44208 7.17026C2.06235 7.56622 0.248047 9.6341 0.248047 12.1262C0.248047 14.9013 2.49766 17.1509 5.27273 17.1509H22.5102C25.2853 17.1509 27.5349 14.9013 27.5349 12.1262C27.5349 9.35118 25.2853 7.10156 22.5102 7.10156Z" fill="url(#paint0_radial_49_1570)"/>
<path d="M27.5349 12.1266C27.5349 14.9015 25.2853 17.1513 22.5103 17.1513C19.7352 17.1513 17.4856 14.9015 17.4856 12.1266C17.4856 9.35158 19.7352 7.10196 22.5103 7.10196C25.2853 7.10196 27.5349 9.35158 27.5349 12.1266Z" fill="url(#paint1_linear_49_1570)"/>
<path d="M22.5102 6.25919C22.5102 8.22131 20.9195 9.81203 18.9571 9.81203C16.995 9.81203 15.4043 8.22131 15.4043 6.25919C15.4043 4.29687 16.995 2.70615 18.9571 2.70615C20.9195 2.70615 22.5102 4.29687 22.5102 6.25919Z" fill="url(#paint2_linear_49_1570)"/>
<path d="M18.0067 7.10158C18.0067 10.8474 14.97 13.8842 11.224 13.8842C7.47813 13.8842 4.44138 10.8474 4.44138 7.10158C4.44138 3.35554 7.47813 0.318787 11.224 0.318787C14.97 0.318787 18.0067 3.35554 18.0067 7.10158Z" fill="url(#paint3_linear_49_1570)"/>
<path d="M10.2974 12.1266C10.2974 14.9015 8.04781 17.1513 5.27274 17.1513C2.49767 17.1513 0.248047 14.9015 0.248047 12.1266C0.248047 9.35158 2.49767 7.10196 5.27274 7.10196C8.04781 7.10196 10.2974 9.35158 10.2974 12.1266Z" fill="url(#paint4_linear_49_1570)"/>
<path d="M0.294678 12.8108C0.628601 15.2619 2.72978 17.1512 5.27272 17.1512H22.5102C25.0531 17.1512 27.1545 15.2619 27.4882 12.8108H0.294678Z" fill="url(#paint5_linear_49_1570)"/>
<path d="M13.914 17.151L13.6519 16.8889C13.2797 16.4867 12.7478 16.2348 12.1565 16.2348C12.1497 16.2348 12.1428 16.2354 12.1359 16.2354C12.1318 16.2316 12.1278 16.2275 12.1239 16.2237L10.779 14.8789C10.1942 14.2662 9.37002 13.8842 8.4561 13.8842C6.68176 13.8842 5.24343 15.3225 5.24343 17.0969C5.24343 17.1056 5.24405 17.1143 5.24426 17.1231C5.20596 17.131 5.16828 17.1404 5.13101 17.151H13.914Z" fill="url(#paint6_linear_49_1570)"/>
<path d="M15.4432 17.4813C15.4432 17.4737 15.4426 17.466 15.4426 17.4583C15.4426 15.9042 16.7007 14.6444 18.2527 14.6444C19.5701 14.6444 20.6754 15.5525 20.9793 16.7776C21.141 16.7295 21.312 16.7032 21.4892 16.7032C22.4734 16.7032 23.2713 17.5023 23.2713 18.4877C23.2713 19.4733 22.4734 20.2723 21.4892 20.2723C20.92 20.2723 16.1273 20.2723 15.7256 20.2723C14.9481 20.2723 14.3178 19.6412 14.3178 18.8626C14.3178 18.1808 14.8009 17.6122 15.4432 17.4813Z" fill="url(#paint7_radial_49_1570)"/>
<defs>
<radialGradient id="paint0_radial_49_1570" cx="0" cy="0" r="1" gradientUnits="userSpaceOnUse" gradientTransform="translate(9.27156 -1.5264) scale(20.7043 20.7043)">
<stop stop-color="#CFCED3"/>
<stop offset="0.8111" stop-color="#A5ABBD"/>
<stop offset="1" stop-color="#9AA2B7"/>
</radialGradient>
<linearGradient id="paint1_linear_49_1570" x1="22.4539" y1="12.2966" x2="25.4383" y2="3.29293" gradientUnits="userSpaceOnUse">
<stop offset="0.0018" stop-color="#9AA2B7" stop-opacity="0"/>
<stop offset="0.3682" stop-color="#848A9C" stop-opacity="0.368627"/>
<stop offset="1" stop-color="#606572"/>
</linearGradient>
<linearGradient id="paint2_linear_49_1570" x1="19.0397" y1="6.1368" x2="22.8767" y2="0.447874" gradientUnits="userSpaceOnUse">
<stop offset="0.0018" stop-color="#9AA2B7" stop-opacity="0"/>
<stop offset="0.3682" stop-color="#848A9C" stop-opacity="0.368627"/>
<stop offset="1" stop-color="#606572"/>
</linearGradient>
<linearGradient id="paint3_linear_49_1570" x1="11.224" y1="7.70232" x2="11.224" y2="-8.6698" gradientUnits="userSpaceOnUse">
<stop offset="0.0018" stop-color="#9AA2B7" stop-opacity="0"/>
<stop offset="0.3682" stop-color="#848A9C" stop-opacity="0.368627"/>
<stop offset="1" stop-color="#606572"/>
</linearGradient>
<linearGradient id="paint4_linear_49_1570" x1="5.36142" y1="12.2104" x2="-0.695582" y2="6.48601" gradientUnits="userSpaceOnUse">
<stop offset="0.0018" stop-color="#9AA2B7" stop-opacity="0"/>
<stop offset="0.3682" stop-color="#848A9C" stop-opacity="0.368627"/>
<stop offset="1" stop-color="#606572"/>
</linearGradient>
<linearGradient id="paint5_linear_49_1570" x1="13.8915" y1="13.5094" x2="13.8915" y2="20.5052" gradientUnits="userSpaceOnUse">
<stop offset="0.0018" stop-color="#9AA2B7" stop-opacity="0"/>
<stop offset="0.3682" stop-color="#848A9C" stop-opacity="0.368627"/>
<stop offset="1" stop-color="#606572"/>
</linearGradient>
<linearGradient id="paint6_linear_49_1570" x1="12.7182" y1="20.3455" x2="5.3959" y2="13.0232" gradientUnits="userSpaceOnUse">
<stop offset="0.0018" stop-color="#9AA2B7" stop-opacity="0"/>
<stop offset="0.3682" stop-color="#848A9C" stop-opacity="0.368627"/>
<stop offset="1" stop-color="#606572"/>
</linearGradient>
<radialGradient id="paint7_radial_49_1570" cx="0" cy="0" r="1" gradientUnits="userSpaceOnUse" gradientTransform="translate(16.9639 14.3711) scale(7.63896 7.64957)">
<stop stop-color="#CFCED3"/>
<stop offset="0.8111" stop-color="#A5ABBD"/>
<stop offset="1" stop-color="#9AA2B7"/>
</radialGradient>
</defs>
</svg>
